<ttFont>
          <CharString index="0">
            -107 callgsubr
            452 vlineto
            8 26 30 2 26 hhcurveto
            70 12 -31 -45 hvcurveto
            return
          </CharString>
          <CharString index="1">
            rmoveto
            -5 -26 -42 -7 -50 -96 callgsubr
            73 173 callgsubr
            return
          </CharString>
          <CharString index="2">
            0 8 -28 -47 vvcurveto
            -146 vlineto
            -45 -20 -35 -75 -26 -27 5 5 -102 callsubr
            return
          </CharString>
          <CharString index="3">
            -105 callsubr
            50 36 13 23 23 hvcurveto
            return
          </CharString>
          <CharString index="4">
            -19 23 callsubr
            24 9 14 19 19 -9 14 -24 return
          </CharString>
          <CharString index="5">
            -22 vhcurveto
            137 -45 -317 vlineto
            -38 callgsubr
            return
          </CharString>
          <CharString index="6">
            -40 272 hlineto
            0 13 -28 -47 vvcurveto
            -122 vlineto
            -61 -25 -37 -72 -25 -29 4 3 -19 vhcurveto
            124 -45 -268 57 callsubr
            return
          </CharString>
          <CharString index="7">
            -45 -18 -25 -60 -60 -18 5 callsubr
            191 vlineto
            45 18 25 60 vhcurveto
            return
          </CharString>
          <CharString index="8">
            -4 -9 -41 95 callsubr
            286 callgsubr
            49 41 -10 -4 9 vhcurveto
            return
          </CharString>
          <CharString index="9">
            -80 -43 -35 -75 -93 callsubr
            return
          </CharString>
          <CharString index="10">
            0 37 12 44 70 19 -30 -45 vhcurveto
            -200 vlineto
            -45 -20 -31 -75 2 vhcurveto
            -41 vlineto
            0 11 -1 7 82 40 46 70 vhcurveto
            200 vlineto
            69 -44 48 -90 -42 -39 -12 0 vhcurveto
            116 return
          </CharString>
          <CharString index="11">
            32 61 550 rmoveto
            -50 vlineto
            11 31 50 9 46 hhcurveto
            93 22 -32 -56 hvcurveto
            -95 vlineto
            -148 -42 rlineto
            -84 -24 -36 -45 -64 vvcurveto
            -32 vlineto
            -82 41 -52 99 68 29 20 24 31 vhcurveto
            -40 49 432 vlineto
            85 -47 51 -117 -49 -50 -9 -9 -28 vhcurveto
            242 -464 rmoveto
            -24 -27 -45 -22 -53 hhcurveto
            -70 -24 30 59 hvcurveto
            31 vlineto
            46 19 27 68 20 vhcurveto
            132 37 rlineto
            return
          </CharString>
          <CharString index="12">
            -70 40 -49 82 3 vhcurveto
            6 12 1 0 hvcurveto
            41 vlineto
            -75 -2 -20 31 45 vvcurveto
            return
          </CharString>
          <CharString index="13">
            -92 callsubr
            vlineto
            endchar
          </CharString>
          <CharString index="14">
            hvcurveto
            -91 callgsubr
            return
          </CharString>
          <CharString index="15">
            -77 callgsubr
            -418 -82 callgsubr
            return
          </CharString>
          <CharString index="16">
            -92 callgsubr
            vlineto
            endchar
          </CharString>
          <CharString index="17">
            -24 callgsubr
            -90 -40 -47 -75 hvcurveto
            -17 callgsubr
            return
          </CharString>
          <CharString index="18">
            -7 -31 -32 -9 -60 hhcurveto
            -75 -42 28 68 hvcurveto
            return
          </CharString>
          <CharString index="19">
            0 8 -51 callgsubr
            return
          </CharString>
          <CharString index="20">
            -85 callsubr
            -100 return
          </CharString>
          <CharString index="21">
            -135 103 -41 124 55 53 8 7 34 vhcurveto
            44 vlineto
            -7 -30 -50 -9 -63 hhcurveto
            -105 -76 33 100 hvcurveto
            return
          </CharString>
          <CharString index="22">
            -100 -81 callsubr
            return
          </CharString>
          <CharString index="23">
            110 callsubr
            -7 0 1 -7 vhcurveto
            -42 vlineto
            -1 8 8 0 8 hhcurveto
            82 34 53 64 hvcurveto
            return
          </CharString>
          <CharString index="24">
            rmoveto
            122 vlineto
            64 27 45 79 79 27 -45 -64 vhcurveto
            -122 vlineto
            -262 -158 rmoveto
            -95 59 -49 124 46 38 7 8 27 vhcurveto
            -29 callgsubr
            -110 -46 -68 -86 vhcurveto
            endchar
          </CharString>
          <CharString index="25">
            130 rmoveto
            -99 callsubr
            return
          </CharString>
          <CharString index="26">
            -40 100 -70 callsubr
            return
          </CharString>
          <CharString index="27">
            vlineto
            8 26 30 2 26 hhcurveto
            70 12 -31 -45 hvcurveto
            return
          </CharString>
          <CharString index="28">
            604 100 return
          </CharString>
          <CharString index="29">
            vlineto
            -89 callgsubr
            return
          </CharString>
          <CharString index="30">
            -75 37 -37 90 90 37 37 75 vhcurveto
            return
          </CharString>
          <CharString index="31">
            -75 43 -37 80 80 43 37 75 vhcurveto
            return
          </CharString>
          <CharString index="32">
            -105 callgsubr
            -446 299 callgsubr
            251 callsubr
            -57 -24 -16 -72 -2 vhcurveto
            26 -11 -28 19 -54 hhcurveto
            -130 return
          </CharString>
          <CharString index="33">
            -190 145 rlineto
            42 2 21 28 72 hhcurveto
            26 21 -5 0 hvcurveto
            42 vlineto
            0 -22 5 -25 -95 -45 -42 -75 vhcurveto
            279 callgsubr
            45 -42 95 return
          </CharString>
          <CharString index="34">
            vlineto
            50 -13 25 0 vhcurveto
            return
          </CharString>
          <CharString index="35">
            -70 callgsubr
            vlineto
            endchar
          </CharString>
          <CharString index="36">
            -63 callgsubr
            vlineto
            endchar
          </CharString>
          <CharString index="37">
            -62 callgsubr
            40 return
          </CharString>
          <CharString index="38">
            -75 47 -42 90 30 28 5 5 20 vhcurveto
            -83 35 callgsubr
            return
          </CharString>
          <CharString index="39">
            rmoveto
            -380 vlineto
            119 callgsubr
            380 vlineto
            86 -49 67 243 callgsubr
            -49 -67 -86 vhcurveto
            268 hmoveto
            -380 121 callsubr
            380 vlineto
            64 30 44 79 79 30 -44 -64 vhcurveto
            return
          </CharString>
          <CharString index="40">
            -45 -317 vlineto
            -83 callgsubr
            return
          </CharString>
          <CharString index="41">
            133 callsubr
            -41 vlineto
            100 callsubr
            18 -12 -27 17 hvcurveto
            95 -149 rlineto
            return
          </CharString>
          <CharString index="42">
            -178 -82 hlineto
            -60 callgsubr
            return
          </CharString>
          <CharString index="43">
            146 -97 callgsubr
            return
          </CharString>
          <CharString index="44">
            hhcurveto
            -47 -30 -90 callsubr
            return
          </CharString>
          <CharString index="45">
            141 callgsubr
            -74 vlineto
            -47 15 -30 31 -16 vhcurveto
            -41 -14 -19 -31 -53 vvcurveto
            -99 vlineto
            -75 44 -42 86 23 26 3 6 24 vhcurveto
            -60 43 227 -43 -125 vlineto
            -5 -17 -29 -4 -27 hhcurveto
            -66 -19 31 44 hvcurveto
            99 299 callsubr
            vhcurveto
            return
          </CharString>
          <CharString index="46">
            -94 callgsubr
            138 vlineto
            -6 23 26 -4 26 hhcurveto
            50 36 13 23 23 hvcurveto
            171 -297 63 callgsubr
          </CharString>
          <CharString index="47">
            rmoveto
            -27 -113 rlineto
            31 hlineto
            13 20 31 50 19 vvcurveto
            17 -12 7 -13 vhcurveto
            return
          </CharString>
          <CharString index="48">
            rmoveto
            -64 -31 -34 -79 -79 -31 34 64 vhcurveto
            78 vlineto
            64 31 34 79 79 31 -34 -64 vhcurveto
            100 118 rmoveto
            51 -15 vlineto
            -42 -32 -18 -37 -12 hvcurveto
            18 -26 -36 11 -47 hhcurveto
            -110 -50 -57 -86 hvcurveto
            -78 vlineto
            -68 31 -50 68 -18 vhcurveto
            -27 -7 -23 -22 -35 vvcurveto
            -16 vlineto
            -54 43 -31 75 vhcurveto
            60 hlineto
            73 10 -29 -40 hvcurveto
            -11 vlineto
            -46 -32 -29 -93 vhcurveto
            -40 hlineto
            -68 -40 11 22 -41 hvcurveto
            -50 vlineto
            -16 31 49 -12 69 hhcurveto
            41 hlineto
            128 46 47 74 hvcurveto
            10 vlineto
            72 -37 42 -97 vhcurveto
            -59 hlineto
            -54 -18 17 35 42 22 19 43 110 50 57 86 hvcurveto
            78 vlineto
            40 -11 34 -23 25 vhcurveto
            11 12 17 8 22 hhcurveto
            endchar
          </CharString>
          <CharString index="49">
            45 -47 callsubr
          </CharString>
          <CharString index="50">
            42 vlineto
            -9 -35 -35 -7 -43 hhcurveto
            -75 -47 32 64 hvcurveto
            143 vlineto
            -10 28 31 -6 36 hhcurveto
            95 45 47 75 hvcurveto
            return
          </CharString>
          <CharString index="51">
            -40 77 -360 9 callsubr
            447 -17 callsubr
            return
          </CharString>
          <CharString index="52">
            rmoveto
            -58 vlineto
            -67 29 -40 55 -30 vhcurveto
            117 -64 rlineto
            44 -24 14 -24 -47 vvcurveto
            -49 vlineto
            -54 -34 -39 -92 -48 -50 10 298 callsubr
            -10 28 50 -9 51 hhcurveto
            121 55 53 86 hvcurveto
            52 vlineto
            62 -26 40 -55 30 vhcurveto
            -117 65 rlineto
            -42 23 -19 27 49 vvcurveto
            57 vlineto
            57 38 29 74 48 48 -7 -10 28 vhcurveto
            48 vlineto
            8 -28 -45 7 -51 hhcurveto
            -108 -54 -52 -82 hvcurveto
            return
          </CharString>
          <CharString index="53">
            -48 callsubr
            hlineto
            endchar
          </CharString>
          <CharString index="54">
            rmoveto
            -36 vlineto
            -65 30 -37 57 -24 vhcurveto
            91 -40 rlineto
            53 -23 13 -18 -41 vvcurveto
            -23 vlineto
            -55 -29 -32 -93 -48 -38 8 298 callsubr
            -9 28 38 -8 51 hhcurveto
            117 55 47 86 hvcurveto
            27 306 callsubr
            19 52 vvcurveto
            30 vlineto
            58 18 29 93 41 36 -8 -11 31 vhcurveto
            48 vlineto
            9 -28 -39 8 -41 hhcurveto
            -117 -44 -46 -87 hvcurveto
            return
          </CharString>
          <CharString index="55">
            -50 callgsubr
            -20 return
          </CharString>
          <CharString index="56">
            vlineto
            -68 callgsubr
            return
          </CharString>
          <CharString index="57">
            vlineto
            -104 callsubr
            return
          </CharString>
          <CharString index="58">
            -5 callsubr
            vlineto
            endchar
          </CharString>
          <CharString index="59">
            186 -73 callsubr
            155 110 callgsubr
            return
          </CharString>
          <CharString index="60">
            -79 callsubr
            vlineto
            endchar
          </CharString>
          <CharString index="61">
            44 13 31 66 66 13 -30 -45 vhcurveto
            return
          </CharString>
          <CharString index="62">
            -75 43 -37 80 80 43 37 75 vhcurveto
            -54 callsubr
          </CharString>
          <CharString index="63">
            230 callsubr
            -79 49 -51 114 42 48 4 7 40 vhcurveto
            41 vlineto
            -8 -48 -39 -2 -43 hhcurveto
            171 callsubr
            return
          </CharString>
          <CharString index="64">
            -57 callsubr
            145 vlineto
            75 -45 47 -95 -95 -45 -47 -75 -17 3 -20 0 vhcurveto
            389 154 154 callsubr
          </CharString>
          <CharString index="65">
            rmoveto
            -523 121 callsubr
            523 -50 -523 vlineto
            119 callgsubr
            523 vlineto
            return
          </CharString>
          <CharString index="66">
            45 20 35 75 75 20 -35 -45 vhcurveto
            return
          </CharString>
          <CharString index="67">
            -141 87 callgsubr
            return
          </CharString>
          <CharString index="68">
            hhcurveto
            -124 -47 -35 callsubr
            return
          </CharString>
          <CharString index="69">
            -79 57 -47 95 40 24 3 7 29 vhcurveto
            -25 callgsubr
            return
          </CharString>
          <CharString index="70">
            -45 10 -36 48 -16 vhcurveto
            56 callsubr
            return
          </CharString>
          <CharString index="71">
            5 8 -28 vhcurveto
            -43 vlineto
            -7 25 return
          </CharString>
          <CharString index="72">
            37 103 hvcurveto
            52 32 vlineto
            -23 callgsubr
            return
          </CharString>
          <CharString index="73">
            45 -33 callgsubr
          </CharString>
          <CharString index="74">
            -40 292 -50 callsubr
            return
          </CharString>
          <CharString index="75">
            vlineto
            -7 -32 -21 -3 -40 hhcurveto
            -75 -32 33 51 hvcurveto
            return
          </CharString>
          <CharString index="76">
            43 vlineto
            -10 -32 -39 43 callgsubr
            return
          </CharString>
          <CharString index="77">
            -41 vlineto
            -75 45 -41 95 vhcurveto
            -11 callgsubr
            return
          </CharString>
          <CharString index="78">
            vlineto
            -130 95 -43 118 -3 vhcurveto
            -149 -90 rlineto
            -4 vlineto
            66 -10 161 108 rlineto
            41 vlineto
            -1 -14 -35 -1 -16 20 callgsubr
          </CharString>
          <CharString index="79">
            rmoveto
            46 hlineto
            48 105 rlineto
            -36 hlineto
            -35 -68 -35 68 rlineto
            -36 hlineto
            return
          </CharString>
          <CharString index="80">
            28 callsubr
            endchar
          </CharString>
          <CharString index="81">
            vlineto
            -60 -29 -14 -85 vhcurveto
            -20 -43 hlineto
            -138 87 -30 96 45 46 7 5 32 174 callsubr
          </CharString>
          <CharString index="82">
            rmoveto
            -86 callgsubr
            return
          </CharString>
          <CharString index="83">
            -2 40 -12 38 -40 15 237 callgsubr
            71 8 callgsubr
            -71 31 callgsubr
            -80 9 callgsubr
            53 130 -213 45 604 return
          </CharString>
          <CharString index="84">
            -40 661 hlineto
            -18 callgsubr
            return
          </CharString>
          <CharString index="85">
            vlineto
            -101 callgsubr
            return
          </CharString>
          <CharString index="86">
            140 callgsubr
            -24 5 -32 98 callgsubr
            -5 31 25 -12 callsubr
            return
          </CharString>
          <CharString index="87">
            123 callgsubr
            vhcurveto
            return
          </CharString>
          <CharString index="88">
            42 callsubr
            105 283 215 callgsubr
            -60 -27 -14 -82 -1 vhcurveto
            13 -9 -21 7 -32 hhcurveto
            -103 131 -21 callsubr
            -131 210 callsubr
            24 callgsubr
          </CharString>
          <CharString index="89">
            -6 callgsubr
            -178 rmoveto
            -82 hlineto
            -36 -27 -6 -11 -20 hvcurveto
            57 -6 -32 38 -88 75 callgsubr
            373 256 callsubr
            332 258 rmoveto
            -1035 -40 285 -479 hlineto
            -107 callsubr
            -211 -3 callsubr
          </CharString>
          <CharString index="90">
            vlineto
            8 26 40 2 26 hhcurveto
            70 12 -31 -45 hvcurveto
            return
          </CharString>
          <CharString index="91">
            -46 callgsubr
            33 31 323 callgsubr
            return
          </CharString>
          <CharString index="92">
            -45 hhcurveto
            -11 -9 -1 -1 -7 hvcurveto
            return
          </CharString>
          <CharString index="93">
            -77 callsubr
            208 callgsubr
          </CharString>
          <CharString index="94">
            8 26 20 2 26 hhcurveto
            70 22 -30 -45 hvcurveto
            return
          </CharString>
          <CharString index="95">
            vvcurveto
            -46 callsubr
            return
          </CharString>
          <CharString index="96">
            -49 -20 -35 -73 -48 -33 11 7 -20 vhcurveto
            -43 vlineto
            -8 21 32 -9 48 hhcurveto
            95 43 48 78 hvcurveto
            return
          </CharString>
          <CharString index="97">
            rmoveto
            -37 -105 rlineto
            37 322 callsubr
            return
          </CharString>
          <CharString index="98">
            -40 308 -99 -96 hlineto
            -95 -45 -40 -75 hvcurveto
            188 callsubr
            -52 vlineto
            -45 -20 -29 -8 callsubr
            return
          </CharString>
          <CharString index="99">
            -75 -28 -29 2 9 -32 vhcurveto
            76 -42 -209 42 90 vlineto
            -8 31 23 -2 35 hhcurveto
            return
          </CharString>
          <CharString index="100">
            48 callsubr
            -74 hvcurveto
            return
          </CharString>
          <CharString index="101">
            -138 92 -30 96 return
          </CharString>
          <CharString index="102">
            -79 51 -46 95 98 callsubr
            vhcurveto
            -88 -82 callgsubr
            return
          </CharString>
          <CharString index="103">
            rmoveto
            -45 -15 -30 -70 -70 -15 30 45 vhcurveto
            175 callgsubr
            70 15 -30 -45 vhcurveto
            -215 -136 rmoveto
            280 callgsubr
            90 40 32 85 vhcurveto
            136 103 callsubr
            endchar
          </CharString>
          <CharString index="104">
            vlineto
            -14 callsubr
          </CharString>
          <CharString index="105">
            173 callsubr
            -188 vlineto
            -49 -25 -35 -73 -25 -47 8 8 -36 vhcurveto
            11 18 5 22 27 vvcurveto
            197 337 callsubr
            279 callgsubr
            45 -42 95 36 29 6 10 21 vhcurveto
            -7 28 75 -17 43 239 callsubr
            188 -97 callgsubr
            return
          </CharString>
          <CharString index="106">
            55 callgsubr
            -22 5 -30 98 callgsubr
            -5 27 26 39 callgsubr
            return
          </CharString>
          <CharString index="107">
            240 callgsubr
            -196 -203 rlineto
            61 hlineto
            210 217 rlineto
            -217 -58 callsubr
          </CharString>
          <CharString index="108">
            -79 callgsubr
            28 35 78 33 31 323 callgsubr
            -314 vlineto
            -38 callgsubr
            return
          </CharString>
          <CharString index="109">
            4 -9 -41 10 -49 hhcurveto
            return
          </CharString>
          <CharString index="110">
            -23 23 callsubr
            24 9 14 23 23 189 callsubr
            -23 vhcurveto
            return
          </CharString>
          <CharString index="111">
            rmoveto
            -666 276 45 -226 268 197 45 -197 263 226 45 vlineto
            return
          </CharString>
          <CharString index="112">
            26 44 vhcurveto
            return
          </CharString>
          <CharString index="113">
            -86 callsubr
            102 vlineto
            -84 callgsubr
            return
          </CharString>
          <CharString index="114">
            94 callgsubr
            67 18 -34 -43 vhcurveto
            101 callgsubr
            vlineto
            43 23 34 67 return
          </CharString>
          <CharString index="115">
            vlineto
            -54 -39 -25 -75 -50 -46 6 11 -38 vhcurveto
            -45 vlineto
            -10 43 42 -4 49 hhcurveto
            106 53 43 78 hvcurveto
            return
          </CharString>
          <CharString index="116">
            hlineto
            -4 callgsubr
            return
          </CharString>
          <CharString index="117">
            vlineto
            -49 -25 -35 -73 -37 return
          </CharString>
          <CharString index="118">
            vlineto
            -45 callsubr
          </CharString>
          <CharString index="119">
            -35 -59 callgsubr
            return
          </CharString>
          <CharString index="120">
            -105 callgsubr
            -470 hmoveto
            290 55 callsubr
            -22 321 callsubr
            5 vlineto
            67 callgsubr
            615 151 rmoveto
            return
          </CharString>
          <CharString index="121">
            -75 -20 27 45 hvcurveto
            13 vlineto
            45 17 28 75 vhcurveto
            return
          </CharString>
          <CharString index="122">
            -105 callgsubr
            -485 126 callgsubr
            return
          </CharString>
          <CharString index="123">
            -90 -37 -35 -75 hvcurveto
            return
          </CharString>
          <CharString index="124">
            46 callgsubr
            -157 262 callgsubr
            return
          </CharString>
          <CharString index="125">
            229 callgsubr
            -259 -40 93 hlineto
            0 -10 -32 -63 vvcurveto
            return
          </CharString>
          <CharString index="126">
            -7 callgsubr
            -90 -40 -47 -75 hvcurveto
            return
          </CharString>
          <CharString index="127">
            186 -37 callgsubr
            return
          </CharString>
          <CharString index="128">
            vlineto
            -61 -28 -14 -86 vhcurveto
            return
          </CharString>
          <CharString index="129">
            -95 -45 -42 -75 hvcurveto
            return
          </CharString>
          <CharString index="130">
            9 -14 24 return
          </CharString>
          <CharString index="131">
            rmoveto
            142 95 40 -100 vlineto
            -17 33 -21 49 35 vvcurveto
            57 40 18 46 12 13 -1 -2 13 vhcurveto
            40 vlineto
            2 -14 -14 2 -14 hhcurveto
            -66 -61 -32 -84 -42 18 -41 19 -34 hvcurveto
            -287 -40 293 -100 327 callgsubr
            -6 142 callgsubr
            22 hlineto
            75 20 -29 -45 hvcurveto
            -42 vlineto
            -48 -32 -26 -75 -39 -29 2 6 -30 vhcurveto
            86 -42 -232 42 105 vlineto
            -6 28 32 -3 38 hhcurveto
            106 46 38 78 hvcurveto
            42 vlineto
            75 -45 41 -95 vhcurveto
            -22 hlineto
            -75 -20 29 45 hvcurveto
            6 97 callsubr
            endchar
          </CharString>
          <CharString index="132">
            rmoveto
            -14 -104 rlineto
            -66 -45 65 -402 hlineto
            -78 45 -41 82 26 35 6 3 10 vhcurveto
            46 vlineto
            -4 -11 -33 -6 -27 hhcurveto
            -50 -27 19 55 hvcurveto
            402 137 45 -137 104 vlineto
            return
          </CharString>
          <CharString index="133">
            -474 vmoveto
            -99 callsubr
            145 195 rmoveto
            return
          </CharString>
          <CharString index="134">
            -69 callgsubr
            -609 -40 285 vlineto
            return
          </CharString>
          <CharString index="135">
            -30 callsubr
            43 vlineto
            -21 callgsubr
            return
          </CharString>
          <CharString index="136">
            -89 callsubr
            144 vlineto
            -10 31 24 -6 40 hhcurveto
            95 45 47 75 hvcurveto
            -64 callsubr
            93 40 -450 -40 312 hlineto
            -85 callgsubr
            -39 -26 7 9 -30 vhcurveto
            return
          </CharString>
          <CharString index="137">
            vlineto
            -53 callgsubr
            return
          </CharString>
          <CharString index="138">
            35 callgsubr
            vlineto
            endchar
          </CharString>
          <CharString index="139">
            -32 hhcurveto
            -52 -40 -24 callgsubr
            return
          </CharString>
          <CharString index="140">
            397 rmoveto
            58 callgsubr
            338 callsubr
            -22 40 -56 12 vhcurveto
            116 158 325 callgsubr
            45 hmoveto
            47 10 28 0 vhcurveto
            189 -111 hlineto
            -35 -27 -8 0 hvcurveto
            -42 vlineto
            0 26 8 30 69 11 -30 -45 vhcurveto
            -209 221 callgsubr
            return
          </CharString>
          <CharString index="141">
            60 335 139 rmoveto
            -64 -31 -40 -79 -79 -31 40 64 vhcurveto
            62 vlineto
            64 31 44 79 79 31 -44 -64 vhcurveto
            -217 326 rmoveto
            64 28 40 79 79 28 -40 -64 vhcurveto
            -65 vlineto
            -64 -28 -44 -79 -79 -28 44 64 vhcurveto
            264 65 rmoveto
            86 -47 63 243 callgsubr
            -47 -63 -86 vhcurveto
            -65 vlineto
            -62 25 -47 55 -21 vhcurveto
            -57 -22 -26 -47 -62 vvcurveto
            -62 vlineto
            -86 50 -63 241 callgsubr
            50 63 86 vhcurveto
            62 vlineto
            62 -26 47 -57 22 vhcurveto
            55 21 25 47 62 vvcurveto
            endchar
          </CharString>
          <CharString index="142">
            -77 callsubr
            37 callsubr
          </CharString>
          <CharString index="143">
            rmoveto
            -39 26 -32 46 47 25 32 39 39 -25 31 -47 -46 -26 -31 -39 vhcurveto
            109 hmoveto
            -23 -14 -15 -23 -23 -14 15 23 22 14 15 23 23 14 -15 -22 vhcurveto
            return
          </CharString>
          <CharString index="144">
            211 76 vlineto
            46 18 -7 -49 hvcurveto
            -77 vlineto
            -91 callsubr
          </CharString>
          <CharString index="145">
            10 callsubr
            -29 -36 callsubr
            24 228 callsubr
            return
          </CharString>
          <CharString index="146">
            rmoveto
            40 -572 -40 308 -449 215 callsubr
            167 vlineto
            257 callsubr
            -167 vlineto
            -75 47 -42 90 vhcurveto
            6 hlineto
            -169 -151 rlineto
            66 hlineto
            175 161 rlineto
            0 vlineto
            -113 45 452 vlineto
            8 26 30 285 callgsubr
            -33 -4 -7 -21 vhcurveto
            111 vlineto
            endchar
          </CharString>
          <CharString index="147">
            -23 callgsubr
            -77 -94 hlineto
            252 callsubr
            return
          </CharString>
          <CharString index="148">
            -64 -30 -44 -79 -79 -30 44 64 vhcurveto
            return
          </CharString>
          <CharString index="149">
            206 callsubr
            125 callgsubr
            116 vlineto
            45 12 25 70 vhcurveto
            82 hlineto
            return
          </CharString>
          <CharString index="150">
            rmoveto
            192 callgsubr
            128 141 117 40 -460 -40 298 -99 -83 202 callsubr
            -31 142 callgsubr
            122 callsubr
            -53 vlineto
            -54 -39 -25 -75 -51 -50 6 9 -36 vhcurveto
            -42 vlineto
            -9 39 44 -6 54 hhcurveto
            106 53 43 78 hvcurveto
            7 248 rmoveto
            -19 9 -14 24 125 callsubr
            vhcurveto
            endchar
          </CharString>
          <CharString index="151">
            vlineto
            -52 callsubr
            -128 hlineto
            return
          </CharString>
          <CharString index="152">
            rmoveto
            142 105 40 -440 119 callsubr
            -265 vlineto
            -64 30 -44 66 -14 vhcurveto
            -86 -155 rlineto
            49 hlineto
            81 150 rlineto
            5 hlineto
            7 120 callsubr
            65 14 30 45 63 vvcurveto
            -16 callgsubr
            endchar
          </CharString>
          <CharString index="153">
            rmoveto
            -39 -1 -23 -26 -40 hhcurveto
            -40 -23 26 39 -1 hvcurveto
            -43 hlineto
            -58 2 36 -47 69 hhcurveto
            69 36 47 58 2 hvcurveto
            return
          </CharString>
          <CharString index="154">
            -25 callsubr
            101 vlineto
            45 12 25 70 vhcurveto
            82 hlineto
            return
          </CharString>
          <CharString index="155">
            2 callsubr
            -95 -51 -50 return
          </CharString>
          <CharString index="156">
            hhcurveto
            82 callgsubr
            hvcurveto
            return
          </CharString>
          <CharString index="157">
            157 callgsubr
            160 callgsubr
          </CharString>
          <CharString index="158">
            rmoveto
            34 callgsubr
            125 218 rmoveto
            40 -440 -40 197 324 callgsubr
            -61 30 -43 62 -13 vhcurveto
            -86 -155 rlineto
            49 hlineto
            81 150 rlineto
            4 hlineto
            8 120 callsubr
            60 15 29 42 60 vvcurveto
            269 204 callsubr
          </CharString>
          <CharString index="159">
            -52 callsubr
            -128 hlineto
            -6 callsubr
            return
          </CharString>
          <CharString index="160">
            66 callgsubr
            -28 -47 vvcurveto
            return
          </CharString>
          <CharString index="161">
            vlineto
            -35 callgsubr
            return
          </CharString>
          <CharString index="162">
            hlineto
            10 callgsubr
            return
          </CharString>
          <CharString index="163">
            -48 -12 -16 -39 -44 vvcurveto
            return
          </CharString>
          <CharString index="164">
            vlineto
            6 callsubr
            return
          </CharString>
          <CharString index="165">
            127 callsubr
            -130 95 -43 118 -3 vhcurveto
            -149 -90 rlineto
            -4 vlineto
            66 -10 161 108 rlineto
            41 vlineto
            -1 -14 -35 -1 -16 hhcurveto
            -105 -76 33 100 hvcurveto
            return
          </CharString>
          <CharString index="166">
            77 callsubr
            44 7 5 24 vhcurveto
            -97 45 604 100 return
          </CharString>
          <CharString index="167">
            -5 38 657 rmoveto
            -48 vlineto
            10 30 35 6 48 hhcurveto
            93 22 -37 -55 hvcurveto
            -69 vlineto
            -64 -22 -44 -79 vhcurveto
            -66 -45 66 hlineto
            79 26 -44 -64 hvcurveto
            -69 vlineto
            -57 -26 -36 -93 -48 -47 11 11 -30 vhcurveto
            -50 vlineto
            -10 28 46 -8 51 hhcurveto
            117 52 54 85 hvcurveto
            72 vlineto
            64 -25 43 -54 20 vhcurveto
            53 23 22 42 66 vvcurveto
            69 vlineto
            84 -48 54 -117 -51 -36 -6 -8 -26 vhcurveto
            endchar
          </CharString>
          <CharString index="168">
            -76 -41 -39 -70 hvcurveto
            -15 vlineto
            -19 55 205 callsubr
            -40 hlineto
            -109 170 -66 callsubr
            -53 -40 138 -70 callsubr
            return
          </CharString>
          <CharString index="169">
            -141 -3 callsubr
          </CharString>
          <CharString index="170">
            -51 -20 callgsubr
            return
          </CharString>
          <CharString index="171">
            141 callsubr
            -41 vlineto
            76 callgsubr
            return
          </CharString>
          <CharString index="172">
            rmoveto
            208 -220 rlineto
            -51 -11 -30 -29 -65 hhcurveto
            -80 -22 39 45 hvcurveto
            return
          </CharString>
          <CharString index="173">
            rmoveto
            -45 -18 -25 -60 -60 -18 5 callsubr
            return
          </CharString>
          <CharString index="174">
            vlineto
            -41 callsubr
            return
          </CharString>
          <CharString index="175">
            -45 -20 -35 -75 -75 -20 35 45 vhcurveto
            return
          </CharString>
          <CharString index="176">
            rmoveto
            -221 vlineto
            -312 -266 -1 -1 rlineto
            67 hlineto
            132 113 rlineto
            75 64 39 36 0 vvcurveto
            -164 43 -79 callsubr
            40 -581 -40 438 -125 -319 -40 113 vlineto
            -88 callsubr
            -112 38 callsubr
            112 -97 callgsubr
            endchar
          </CharString>
          <CharString index="177">
            vlineto
            -4 -9 -31 -10 -49 -59 callgsubr
            return
          </CharString>
          <CharString index="178">
            rmoveto
            10 -58 -40 -12 -55 27 -74 36 rcurveline
            -61 30 -70 -23 -72 vvcurveto
            -11 2 -10 0 vhcurveto
            37 hlineto
            -10 58 44 10 51 -25 74 -36 rcurveline
            62 -30 69 23 72 vvcurveto
            11 -2 10 0 vhcurveto
            return
          </CharString>
          <CharString index="179">
            300 callgsubr
            -73 -42 callgsubr
            return
          </CharString>
          <CharString index="180">
            -90 45 -56 110 return
          </CharString>
          <CharString index="181">
            vlineto
            -79 57 -47 95 vhcurveto
            9 8 0 8 hhcurveto
            -171 -177 rlineto
            59 hlineto
            180 187 rlineto
            -127 42 166 callsubr
            return
          </CharString>
          <CharString index="182">
            291 callsubr
            -79 -26 44 64 vhcurveto
            return
          </CharString>
          <CharString index="183">
            -141 vlineto
            35 callsubr
          </CharString>
          <CharString index="184">
            52 callsubr
            50 return
          </CharString>
          <CharString index="185">
            hlineto
            -94 -24 39 49 177 callgsubr
            143 142 98 40 -452 230 callsubr
            return
          </CharString>
          <CharString index="186">
            hlineto
            176 callsubr
            -161 vlineto
            -76 callsubr
            return
          </CharString>
          <CharString index="187">
            300 callsubr
            -425 119 callsubr
            -258 vlineto
            -64 36 -43 58 -17 vhcurveto
            -89 -160 rlineto
            49 hlineto
            82 152 10 -1 82 -151 rlineto
            49 hlineto
            -85 152 32 3 29 6 20 7 rlinecurve
            258 callsubr
          </CharString>
          <CharString index="188">
            47 vlineto
            -9 -27 -35 -6 -41 hhcurveto
            -93 -18 33 55 hvcurveto
            304 vlineto
            55 18 34 93 37 36 -5 -8 28 vhcurveto
            46 vlineto
            7 -23 -36 6 -42 hhcurveto
            -117 -44 -51 -84 hvcurveto
            return
          </CharString>
          <CharString index="189">
            vlineto
            45 26 38 75 return
          </CharString>
          <CharString index="190">
            rmoveto
            -19 9 -14 24 125 callsubr
            vhcurveto
            125 hmoveto
            -19 9 -14 24 125 callsubr
            vhcurveto
            endchar
          </CharString>
          <CharString index="191">
            hhcurveto
            -75 -29 286 callgsubr
            11 8 0 -1 10 vhcurveto
            42 vlineto
            1 -9 -10 0 -10 320 callgsubr
            -182 vlineto
            -79 54 -46 95 return
          </CharString>
          <CharString index="192">
            117 callgsubr
            85 -53 48 -83 -46 -47 -18 -10 -25 vhcurveto
            return
          </CharString>
          <CharString index="193">
            -55 -30 -15 -75 -75 -30 15 55 vhcurveto
            -42 -1 hlineto
            -84 52 -25 95 94 53 25 84 vhcurveto
            return
          </CharString>
          <CharString index="194">
            -5 -26 -42 -7 -50 hhcurveto
            -100 -43 40 86 hvcurveto
            return
          </CharString>
          <CharString index="195">
            0 55 655 rmoveto
            -49 vlineto
            10 30 45 9 44 hhcurveto
            97 19 -35 -54 hvcurveto
            -57 vlineto
            -54 -12 -31 -45 -29 vhcurveto
            -74 -49 rlineto
            -67 -44 -47 -37 -95 vvcurveto
            -140 300 48 -250 93 vlineto
            68 28 25 64 42 vhcurveto
            74 49 61 40 17 37 1 77 rlinecurve
            57 vlineto
            84 -48 51 -118 -46 -48 -8 -8 -25 vhcurveto
            endchar
          </CharString>
          <CharString index="196">
            56 callsubr
            -52 vlineto
            -102 77 -40 100 41 55 9 10 39 vhcurveto
            129 callgsubr
          </CharString>
          <CharString index="197">
            68 338 666 -42 callsubr
            return
          </CharString>
          <CharString index="198">
            -113 vlineto
            -7 callsubr
            -182 vlineto
            return
          </CharString>
          <CharString index="199">
            -92 callgsubr
            40 return
          </CharString>
          <CharString index="200">
            -202 rmoveto
            -100 144 rlineto
            -42 hlineto
            90 -144 rlineto
            return
          </CharString>
          <CharString index="201">
            rmoveto
            -37 -105 rlineto
            35 322 callsubr
            -130 hmoveto
            -37 -105 rlineto
            35 322 callsubr
            return
          </CharString>
          <CharString index="202">
            -10 -49 hhcurveto
            -75 -26 return
          </CharString>
          <CharString index="203">
            59 40 -59 198 callsubr
            203 callgsubr
            -148 45 148 68 callgsubr
            return
          </CharString>
          <CharString index="204">
            vlineto
            45 20 28 75 vhcurveto
            return
          </CharString>
          <CharString index="205">
            49 41 10 4 9 return
          </CharString>
          <CharString index="206">
            rlineto
            14 hlineto
            39 19 -12 -28 -28 -24 -12 -32 -17 -17 3 5 -11 hvcurveto
            -33 vlineto
            -5 13 20 -2 16 hhcurveto
            47 39 24 48 41 -28 24 -42 2 hvcurveto
            return
          </CharString>
          <CharString index="207">
            76 callgsubr
            30 return
          </CharString>
          <CharString index="208">
            rmoveto
            -39 vlineto
            2 9 40 8 48 hhcurveto
            65 17 -22 -42 hvcurveto
            -17 vlineto
            -36 -4 -27 -38 -24 vhcurveto
            -63 -41 rlineto
            -66 -43 -22 -25 -67 vvcurveto
            -74 236 38 -196 38 vlineto
            48 4 9 64 43 vhcurveto
            61 41 rlineto
            50 34 14 31 55 vvcurveto
            17 vlineto
            65 -39 37 -83 -39 -48 -7 -2 -10 vhcurveto
            return
          </CharString>
          <CharString index="209">
            179 callgsubr
            -42 vlineto
            -55 -39 -29 -40 -33 vhcurveto
            -40 33 -39 29 55 vvcurveto
            return
          </CharString>
          <CharString index="210">
            vlineto
            75 -40 42 -90 322 callgsubr
            vhcurveto
            return
          </CharString>
          <CharString index="211">
            vlineto
            22 callsubr
            return
          </CharString>
          <CharString index="212">
            -126 346 267 rmoveto
            -263 -267 rlineto
            61 hlineto
            110 113 rlineto
            68 70 24 31 0 vvcurveto
            -165 390 rmoveto
            165 40 -366 -40 156 -247 hlineto
            -95 callgsubr
            return
          </CharString>
          <CharString index="213">
            134 callgsubr
            -101 201 callgsubr
            49 51 16 20 0 vvcurveto
            return
          </CharString>
          <CharString index="214">
            139 206 callsubr
            return
          </CharString>
          <CharString index="215">
            22 callgsubr
            49 31 10 4 9 vhcurveto
            -88 42 -79 callsubr
            return
          </CharString>
          <CharString index="216">
            115 60 34 111 hvcurveto
            return
          </CharString>
          <CharString index="217">
            vlineto
            -41 -14 -34 -61 -6 return
          </CharString>
          <CharString index="218">
            50 65 523 rmoveto
            -380 148 callgsubr
            380 171 callgsubr
            -380 209 callsubr
            380 227 callsubr
          </CharString>
          <CharString index="219">
            rmoveto
            69 -38 45 -80 7 vhcurveto
            97 198 40 -440 -40 197 324 callgsubr
            -75 45 -47 95 95 45 47 75 vhcurveto
            -45 hmoveto
            34 callgsubr
            endchar
          </CharString>
          <CharString index="220">
            186 211 callgsubr
            return
          </CharString>
          <CharString index="221">
            58 65 523 -68 callsubr
            return
          </CharString>
          <CharString index="222">
            0 -10 -25 -50 146 callsubr
            return
          </CharString>
          <CharString index="223">
            rmoveto
            -104 callgsubr
            -50 -137 vlineto
            -88 callgsubr
            353 hlineto
            return
          </CharString>
          <CharString index="224">
            39 callgsubr
            -57 150 callsubr
            return
          </CharString>
          <CharString index="225">
            hhcurveto
            98 callsubr
            hvcurveto
            252 callgsubr
          </CharString>
          <CharString index="226">
            -40 290 179 callsubr
            return
          </CharString>
          <CharString index="227">
            hlineto
            81 -150 rlineto
            49 hlineto
            -87 155 rlineto
            return
          </CharString>
          <CharString index="228">
            vlineto
            41 callsubr
            return
          </CharString>
          <CharString index="229">
            17 hlineto
            75 20 -29 -45 hvcurveto
            return
          </CharString>
          <CharString index="230">
            53 318 713 rmoveto
            -150 -107 vlineto
            -82 -64 -48 -94 hvcurveto
            -279 vlineto
            -93 49 -52 95 57 31 17 17 22 vhcurveto
            -31 49 713 vlineto
            -50 -631 rmoveto
            -20 -20 -36 -20 -52 hhcurveto
            -63 -32 32 67 hvcurveto
            280 vlineto
            64 38 32 70 vhcurveto
            95 hlineto
            return
          </CharString>
          <CharString index="231">
            -359 vlineto
            139 callgsubr
            return
          </CharString>
          <CharString index="232">
            24 9 14 19 19 189 callsubr
            -19 return
          </CharString>
          <CharString index="233">
            hlineto
            15 33 40 95 33 vvcurveto
            18 -12 9 -15 vhcurveto
            return
          </CharString>
          <CharString index="234">
            160 callsubr
            334 40 -651 -87 callgsubr
            return
          </CharString>
          <CharString index="235">
            -76 -41 -39 -70 -6 0 -7 1 -6 hvcurveto
            -21 59 205 callsubr
            43 hlineto
            0 -10 228 callgsubr
            return
          </CharString>
          <CharString index="236">
            -40 77 -359 149 callsubr
            return
          </CharString>
          <CharString index="237">
            -40 284 hlineto
            0 14 -25 -49 vvcurveto
            -86 31 callgsubr
            -109 vlineto
            -52 -31 -32 -93 -38 -32 8 12 -34 vhcurveto
            -46 vlineto
            -10 33 29 -6 42 hhcurveto
            115 54 45 81 hvcurveto
            return
          </CharString>
          <CharString index="238">
            -147 137 callsubr
          </CharString>
          <CharString index="239">
            vlineto
            -474 vmoveto
            -99 callsubr
            return
          </CharString>
          <CharString index="240">
            rlineto
            42 -27 -26 17 -15 callsubr
            return
          </CharString>
          <CharString index="241">
            -47 -42 -75 hvcurveto
            return
          </CharString>
          <CharString index="242">
            -123 vlineto
            -44 19 -33 34 -20 vhcurveto
            -33 -20 -17 -35 -45 vvcurveto
            -39 vlineto
            -78 46 -47 98 98 42 47 78 vhcurveto
            270 -42 -97 vlineto
            -4 -16 -38 -8 -43 hhcurveto
            -75 -28 30 45 hvcurveto
            123 136 callsubr
          </CharString>
          <CharString index="243">
            -32 callgsubr
            endchar
          </CharString>
          <CharString index="244">
            -31 callgsubr
            endchar
          </CharString>
          <CharString index="245">
            -42 callgsubr
            -38 vlineto
            return
          </CharString>
          <CharString index="246">
            476 rmoveto
            202 callgsubr
            return
          </CharString>
          <CharString index="247">
            -30 45 30 vlineto
            75 -36 39 -87 vhcurveto
            return
          </CharString>
          <CharString index="248">
            21 -15 callsubr
            return
          </CharString>
          <CharString index="249">
            vlineto
            45 25 35 75 return
          </CharString>
          <CharString index="250">
            rmoveto
            -109 170 -66 callsubr
            -96 319 callgsubr
          </CharString>
          <CharString index="251">
            rmoveto
            -99 callsubr
            -423 -274 47 callsubr
            return
          </CharString>
          <CharString index="252">
            45 22 30 75 10 16 -1 -1 6 vhcurveto
            41 vlineto
            1 -4 -16 2 -12 hhcurveto
            return
          </CharString>
          <CharString index="253">
            vvcurveto
            -132 138 callsubr
            return
          </CharString>
          <CharString index="254">
            426 -6 callgsubr
            return
          </CharString>
          <CharString index="255">
            -190 75 563 rmoveto
            -563 50 563 vlineto
            return
          </CharString>
          <CharString index="256">
            hlineto
            139 callgsubr
            return
          </CharString>
          <CharString index="257">
            vlineto
            -87 -45 -15 -87 vhcurveto
            return
          </CharString>
          <CharString index="258">
            192 callsubr
            -21 201 callsubr
            23 30 117 callsubr
            return
          </CharString>
          <CharString index="259">
            66 callsubr
            161 66 callgsubr
            -8 -47 vvcurveto
            return
          </CharString>
          <CharString index="260">
            -95 -45 -40 -75 hvcurveto
            return
          </CharString>
          <CharString index="261">
            rmoveto
            -644 -34 callsubr
          </CharString>
          <CharString index="262">
            246 callsubr
            -128 hlineto
            return
          </CharString>
          <CharString index="263">
            -217 -473 rlineto
            -45 268 45 -221 vlineto
            222 473 rlineto
            return
          </CharString>
          <CharString index="264">
            vlineto
            141 callgsubr
            return
          </CharString>
          <CharString index="265">
            -113 hlineto
            2 callsubr
            return
          </CharString>
          <CharString index="266">
            153 callsubr
            -30 callsubr
            return
          </CharString>
          <CharString index="267">
            95 274 rmoveto
            -84 callgsubr
            return
          </CharString>
          <CharString index="268">
            hlineto
            -429 vmoveto
            -99 callgsubr
            return
          </CharString>
          <CharString index="269">
            vlineto
            45 -16 35 -34 21 vhcurveto
            34 21 16 35 45 vvcurveto
            return
          </CharString>
          <CharString index="270">
            150 callgsubr
            79 40 return
          </CharString>
          <CharString index="271">
            rmoveto
            29 callgsubr
            return
          </CharString>
          <CharString index="272">
            43 vlineto
            -21 callgsubr
            endchar
          </CharString>
          <CharString index="273">
            238 -42 -69 -32 callsubr
            return
          </CharString>
          <CharString index="274">
            -76 5 666 rmoveto
            -45 232 vlineto
            -60 -190 rlineto
            -40 -127 -23 -79 -128 vvcurveto
            -97 51 97 vlineto
            124 22 81 40 129 vhcurveto
            61 196 rlineto
            39 vlineto
            endchar
          </CharString>
          <CharString index="275">
            rmoveto
            -314 -45 132 -621 50 621 132 hlineto
            endchar
          </CharString>
          <CharString index="276">
            131 145 -143 vlineto
            188 callgsubr
            10 2 3 rlinecurve
            0 -3 -57 -85 vvcurveto
            -36 -34 callsubr
          </CharString>
          <CharString index="277">
            vlineto
            78 -48 38 -62 -29 -20 -8 0 vhcurveto
            -42 vlineto
            0 15 8 30 41 28 -21 -53 vhcurveto
            return
          </CharString>
          <CharString index="278">
            -94 -24 39 49 109 callgsubr
            return
          </CharString>
          <CharString index="279">
            16 callgsubr
            -39 callgsubr
            return
          </CharString>
          <CharString index="280">
            -40 113 hlineto
            -88 callsubr
            return
          </CharString>
          <CharString index="281">
            vhcurveto
            71 callgsubr
          </CharString>
          <CharString index="282">
            hhcurveto
            217 callgsubr
            return
          </CharString>
          <CharString index="283">
            -80 -43 -35 -75 hvcurveto
            return
          </CharString>
          <CharString index="284">
            266 vlineto
            59 callsubr
            vlineto
            endchar
          </CharString>
          <CharString index="285">
            rmoveto
            68 callsubr
            return
          </CharString>
          <CharString index="286">
            -100 -70 104 callsubr
            return
          </CharString>
          <CharString index="287">
            -208 vlineto
            73 callsubr
            return
          </CharString>
          <CharString index="288">
            145 40 rmoveto
            return
          </CharString>
          <CharString index="289">
            4 310 563 rmoveto
            -137 -274 144 -289 rlineto
            57 hlineto
            -144 291 136 272 rlineto
            -291 150 275 callsubr
            return
          </CharString>
          <CharString index="290">
            122 -183 -122 -183 rlineto
            53 hlineto
            121 183 -121 183 rlineto
            return
          </CharString>
          <CharString index="291">
            51 32 7 9 30 return
          </CharString>
          <CharString index="292">
            vlineto
            -45 -15 -30 -70 -70 -15 30 45 vhcurveto
            218 239 rmoveto
            266 callsubr
            return
          </CharString>
          <CharString index="293">
            0 266 632 rmoveto
            -459 -205 vlineto
            324 hmoveto
            -69 493 -87 hlineto
            -219 -493 rlineto
            -45 256 -128 50 128 69 vlineto
            endchar
          </CharString>
          <CharString index="294">
            hlineto
            -91 callsubr
          </CharString>
          <CharString index="295">
            -7 vlineto
            -75 44 -41 95 vhcurveto
            295 callgsubr
            return
          </CharString>
          <CharString index="296">
            -9 14 -24 -24 -9 -14 return
          </CharString>
          <CharString index="297" raw="1">
            f74907b8 0b  
          </CharString>
          <CharString index="298">
            29 337 666 rmoveto
            -145 -336 151 -330 rlineto
            56 hlineto
            -152 332 145 334 rlineto
            -317 hmoveto
            -666 50 666 vlineto
            return
          </CharString>
          <CharString index="299">
            32 vlineto
            118 callgsubr
            return
          </CharString>
          <CharString index="300">
            -25 callsubr
            61 vlineto
            45 12 25 70 vhcurveto
            82 hlineto
            return
          </CharString>
          <CharString index="301">
            -9 -30 -43 -8 -42 hhcurveto
            -93 -26 34 55 hvcurveto
            return
          </CharString>
          <CharString index="302">
            4 -9 -31 10 -49 hhcurveto
            -95 -51 -46 -74 hvcurveto
            return
          </CharString>
          <CharString index="303">
            -40 -59 callgsubr
            return
          </CharString>
          <CharString index="304">
            vlineto
            26 callsubr
            return
          </CharString>
          <CharString index="305">
            hlineto
            172 callsubr
            return
          </CharString>
          <CharString index="306">
            rmoveto
            -40 315 -113 vlineto
            2 callsubr
            return
          </CharString>
          <CharString index="307">
            -159 rmoveto
            320 callsubr
            -100 144 rlineto
            return
          </CharString>
          <CharString index="308">
            5 -31 98 callgsubr
            -5 return
          </CharString>
          <CharString index="309">
            hlineto
            153 callsubr
            return
          </CharString>
          <CharString index="310">
            -40 77 -360 hlineto
            229 callsubr
            return
          </CharString>
          <CharString index="311">
            vlineto
            69 -38 45 -80 7 vhcurveto
            97 vlineto
            endchar
          </CharString>
          <CharString index="312">
            rlineto
            48 -17 -19 64 callsubr
            27 9 -20 -29 12 hvcurveto
            55 -139 rlineto
            return
          </CharString>
          <CharString index="313">
            -106 callsubr
            -491 return
          </CharString>
          <CharString index="314">
            vlineto
            223 callgsubr
            return
          </CharString>
          <CharString index="315">
            rmoveto
            -40 206 vlineto
            -88 callsubr
            return
          </CharString>
          <CharString index="316">
            vlineto
            75 callsubr
            return
          </CharString>
          <CharString index="317">
            -82 vlineto
            16 callsubr
            return
          </CharString>
          <CharString index="318">
            rmoveto
            -168 -311 rlineto
            -37 191 -104 38 104 51 37 -51 311 vlineto
            -38 -311 rmoveto
            -151 hlineto
            151 281 rlineto
            return
          </CharString>
          <CharString index="319">
            -40 86 -307 vlineto
            244 callgsubr
            return
          </CharString>
          <CharString index="320">
            -45 -28 -30 -75 -75 -22 30 45 vhcurveto
            176 vlineto
            145 callsubr
            return
          </CharString>
          <CharString index="321">
            -315 -666 rlineto
            42 hlineto
            315 666 rlineto
            return
          </CharString>
          <CharString index="322">
            vlineto
            -6 -20 -28 -4 -30 hhcurveto
            -70 -22 30 45 hvcurveto
            return
          </CharString>
          <CharString index="323">
            rmoveto
            -190 145 rlineto
            return
          </CharString>
          <CharString index="324">
            hhcurveto
            90 37 37 75 hvcurveto
            return
          </CharString>
          <CharString index="325">
            rmoveto
            190 -144 rlineto
            return
          </CharString>
          <CharString index="326">
            75 261 callgsubr
            return
          </CharString>
          <CharString index="327">
            15 -19 -31 13 -42 hhcurveto
            -110 -45 -67 -86 hvcurveto
            -142 148 callgsubr
            163 vlineto
            return
          </CharString>
          <CharString index="328">
            vlineto
            -38 callsubr
            return
          </CharString>
          <CharString index="329">
            -42 -30 -8 -15 -21 hvcurveto
            46 -13 -35 27 -66 hhcurveto
            -47 -30 -24 callgsubr
            -90 -40 -47 -75 hvcurveto
            return
          </CharString>
          <CharString index="330">
            -88 -34 callsubr
          </CharString>
          <CharString index="331">
            -95 -42 -40 -75 hvcurveto
            return
          </CharString>
          <CharString index="332">
            rmoveto
            266 callsubr
            -34 -34 7 9 -27 vhcurveto
            return
          </CharString>
          <CharString index="333">
            -19 36 666 250 callsubr
            return
          </CharString>
          <CharString index="334">
            vlineto
            64 26 44 79 79 26 -44 -64 vhcurveto
            endchar
          </CharString>
          <CharString index="335">
            -5 45 239 callsubr
            return
          </CharString>
          <CharString index="336">
            -4 callgsubr
            427 -17 callsubr
            return
          </CharString>
          <CharString index="337">
            153 callgsubr
            -65 vlineto
            return
          </CharString>
          <CharString index="338">
            56 callsubr
            -58 vlineto
            -102 77 -40 100 51 35 6 9 31 vhcurveto
            -79 -34 callsubr
          </CharString>
          <CharString index="339">
            vlineto
            -84 52 -51 117 44 43 7 9 28 vhcurveto
            47 vlineto
            194 callsubr
            endchar
          </CharString>
          <CharString index="340">
            666 rmoveto
            -255 -666 rlineto
            42 hlineto
            255 666 rlineto
            return
          </CharString>
          <CharString index="341">
            371 23 callgsubr
            -391 -40 391 hlineto
            return
          </CharString>
          <CharString index="342">
            -114 hlineto
            176 callgsubr
            return
          </CharString>
          <CharString index="343">
            -20 callsubr
            115 142 return
          </CharString>
          <CharString index="344">
            hhcurveto
            -84 -50 25 77 hvcurveto
            return
          </CharString>
          <CharString index="345">
            36 -11 25 -22 14 vhcurveto
            return
          </CharString>
          <CharString index="346">
            hhcurveto
            95 48 48 78 hvcurveto
            return
          </CharString>
          <CharString index="347">
            69 -27 49 -100 -28 return
          </CharString>
          <CharString index="348">
            -40 264 257 callgsubr
            return
          </CharString>
          <CharString index="349">
            rmoveto
            -341 -137 rlineto
            -62 vlineto
            341 -136 rlineto
            45 vlineto
            -306 122 306 123 rlineto
            endchar
          </CharString>
          <CharString index="350">
            -4 -7 -21 vhcurveto
            return
          </CharString>
          <CharString index="351">
            176 callsubr
            -120 vlineto
            -76 callsubr
            115 -73 callsubr
            return
          </CharString>
          <CharString index="352">
            vvcurveto
            -48 vlineto
            -71 52 -35 83 39 35 6 4 16 vhcurveto
            -63 return
          </CharString>
          <CharString index="353">
            hlineto
            -52 callsubr
            return
          </CharString>
          <CharString index="354">
            170 275 callgsubr
          </CharString>
          <CharString index="355">
            79 30 -41 -64 hvcurveto
            return
          </CharString>
          <CharString index="356">
            rmoveto
            -45 211 vlineto
            156 callsubr
            45 vlineto
            return
          </CharString>
          <CharString index="357">
            rmoveto
            -45 252 vlineto
            156 callgsubr
            45 vlineto
            return
          </CharString>
          <CharString index="358">
            266 vlineto
            -88 callsubr
            -73 vlineto
            return
          </CharString>
          <CharString index="359">
            -128 64 -54 144 return
          </CharString>
          <CharString index="360">
            288 callsubr
            vhcurveto
            return
          </CharString>
          <CharString index="361">
            156 -289 return
          </CharString>
          <CharString index="362">
            vlineto
            115 callsubr
            return
          </CharString>
          <CharString index="363">
            vlineto
            -429 vmoveto
            -99 callgsubr
            return
          </CharString>
          <CharString index="364">
            -101 callgsubr
            -90 134 callsubr
            return
          </CharString>
          <CharString index="365">
            -31 callsubr
            258 136 callsubr
          </CharString>
          <CharString index="366">
            vlineto
            -88 callsubr
            -197 vlineto
            -49 -25 -35 -73 return
          </CharString>
          <CharString index="367">
            -95 -50 -47 -75 hvcurveto
            return
          </CharString>
          <CharString index="368">
            rmoveto
            141 104 40 return
          </CharString>
          <CharString index="369">
            38 18 26 65 vhcurveto
            18 35 -18 hlineto
            -64 1 -13 25 38 vvcurveto
            9 vlineto
            48 24 16 41 vhcurveto
            return
          </CharString>
          <CharString index="370">
            vlineto
            178 callgsubr
          </CharString>
          <CharString index="371">
            122 callsubr
            -43 vlineto
            -54 -39 -25 -75 -50 -46 6 11 -38 vhcurveto
            -45 vlineto
            return
          </CharString>
          <CharString index="372">
            -75 37 -46 90 59 35 20 35 17 vhcurveto
            -35 16 35 -20 59 hhcurveto
            90 37 46 75 hvcurveto
            return
          </CharString>
          <CharString index="373">
            0 -3 18 19 vvcurveto
            -41 callsubr
            -145 vlineto
            -45 -20 -35 -75 return
          </CharString>
          <CharString index="374">
            -190 75 713 275 callsubr
            return
          </CharString>
          <CharString index="375">
            43 16 297 callgsubr
            return
          </CharString>
          <CharString index="376">
            16 17 8 25 34 vvcurveto
            return
          </CharString>
          <CharString index="377">
            44 69 rmoveto
            -40 -193 rlineto
            32 hlineto
            19 42 42 94 31 vvcurveto
            18 -13 8 -15 vhcurveto
            return
          </CharString>
          <CharString index="378">
            rmoveto
            -6 -23 -27 -4 -40 hhcurveto
            -65 -25 25 45 hvcurveto
            42 vlineto
            45 22 30 75 vhcurveto
            0 return
          </CharString>
          <CharString index="379">
            rmoveto
            -75 -15 35 45 hvcurveto
            261 180 -261 vlineto
            -45 -15 -35 -75 vhcurveto
            endchar
          </CharString>
          <CharString index="380">
            rmoveto
            -45 -9 -33 -70 -70 -9 32 44 vhcurveto
            83 vlineto
            45 11 27 70 vhcurveto
            77 hlineto
            return
          </CharString>
          <CharString index="381">
            -15 -33 -40 -95 -33 vvcurveto
            -18 12 -9 15 vhcurveto
            return
          </CharString>
          <CharString index="382">
            rmoveto
            -713 50 713 vlineto
            return
          </CharString>
          <CharString index="383">
            hhcurveto
            -28 -43 339 callsubr
            return
          </CharString>
          <CharString index="384">
            72 20 -30 -44 hvcurveto
            return
          </CharString>
          <CharString index="385">
            -86 49 -67 110 return
          </CharString>
          <CharString index="386">
            45 15 30 70 return
          </CharString>
          <CharString index="387">
            -90 -36 -37 -75 hvcurveto
            -83 vlineto
            -75 34 -43 90 90 34 45 75 vhcurveto
            153 return
          </CharString>
          <CharString index="388">
            -76 callgsubr
            endchar
          </CharString>
          <CharString index="389">
            -49 -563 50 489 return
          </CharString>
          <CharString index="390">
            -63 36 -43 63 -14 vhcurveto
            -84 -1 -31 -30 -87 hhcurveto
            -88 -31 22 63 hvcurveto
            return
          </CharString>
          <CharString index="391">
            150 -45 -150 -148 -40 148 101 callgsubr
            148 return
          </CharString>
          <CharString index="392">
            rmoveto
            -46 hlineto
            -48 -105 rlineto
            36 hlineto
            35 68 35 -68 rlineto
            36 hlineto
            endchar
          </CharString>
          <CharString index="393">
            vlineto
            -78 45 -49 100 100 45 49 78 vhcurveto
            return
          </CharString>
          <CharString index="394">
            -82 callgsubr
            40 return
          </CharString>
          <CharString index="395">
            vlineto
            75 -38 42 -86 return
          </CharString>
          <CharString index="396">
            102 -100 rlineto
            -36 36 37 -8 35 hhcurveto
            78 hlineto
            85 30 33 73 73 return
          </CharString>
          <CharString index="397">
            100 callsubr
            9 -18 -31 9 hvcurveto
            42 -139 rlineto
            return
          </CharString>
          <CharString index="398">
            -64 -26 -44 -79 return
          </CharString>
          <CharString index="399">
            244 rmoveto
            214 callsubr
            return
          </CharString>
          <CharString index="400">
            -113 hlineto
            4 -9 -31 10 -49 hhcurveto
            return
          </CharString>
          <CharString index="401">
            vlineto
            238 callsubr
            164 return
          </CharString>
          <CharString index="402">
            -40 449 -128 -256 return
          </CharString>
          <CharString index="403">
            vlineto
            -55 -23 -17 -69 -3 vhcurveto
            return
          </CharString>
          <CharString index="404">
            hhcurveto
            -73 -24 29 52 hvcurveto
            return
          </CharString>
          <CharString index="405">
            11 -31 vhcurveto
            -48 vlineto
            return
          </CharString>
          <CharString index="406">
            vlineto
            44 13 31 66 return
          </CharString>
          <CharString index="407">
            rmoveto
            142 90 40 return
          </CharString>
          <CharString index="408">
            -12 callsubr
            -131 -82 vlineto
            return
          </CharString>
          <CharString index="409">
            vlineto
            -71 38 -57 111 vhcurveto
            42 vlineto
            -90 -14 44 42 hvcurveto
            return
          </CharString>
          <CharString index="410">
            108 532 179 callgsubr
            return
          </CharString>
          <CharString index="411">
            214 callsubr
            endchar
          </CharString>
          <CharString index="412">
            195 callgsubr
            116 return
          </CharString>
          <CharString index="413">
            vlineto
            61 -36 33 -57 26 vhcurveto
            -87 39 rlineto
            -47 20 -17 return
          </CharString>
          <CharString index="414">
            -61 -25 -37 -72 -25 -29 4 3 -19 vhcurveto
            124 -45 return
          </CharString>
          <CharString index="415">
            vlineto
            -12 -49 -52 -6 -52 175 callsubr
            return
          </CharString>
          <CharString index="416">
            -128 202 callgsubr
            -191 vlineto
            return
          </CharString>
          <CharString index="417">
            41 11 13 50 45 vvcurveto
            87 vlineto
            53 -11 20 0 vhcurveto
            return
          </CharString>
          <CharString index="418">
            -282 hhcurveto
            -191 -140 -29 -162 hvcurveto
            endchar
          </CharString>
          <CharString index="419">
            202 callsubr
            -7 vlineto
            return
          </CharString>
          <CharString index="420">
            rlineto
            59 hlineto
            156 139 rlineto
            return
          </CharString>
          <CharString index="421">
            150 rmoveto
            298 callgsubr
            return
          </CharString>
          <CharString index="422">
            28 5 12 21 vhcurveto
            return
          </CharString>
          <CharString index="423">
            253 rmoveto
            -86 -30 -40 -102 -100 -29 40 86 vhcurveto
            return
          </CharString>
          <CharString index="424">
            48 -14 -25 141 callsubr
            return
          </CharString>
          <CharString index="425">
            vlineto
            274 callgsubr
            return
          </CharString>
          <CharString index="426">
            hlineto
            260 callsubr
            return
          </CharString>
          <CharString index="427">
            90 -144 rlineto
            52 hlineto
            return
          </CharString>
          <CharString index="428">
            -17 -67 -3 vhcurveto
            return
          </CharString>
          <CharString index="429">
            hlineto
            55 105 rlineto
            return
          </CharString>
          <CharString index="430">
            vhcurveto
            42 vlineto
            18 return
          </CharString>
          <CharString index="431">
            -78 hlineto
            -23 -22 4 32 -34 hvcurveto
            -66 66 rlineto
            return
          </CharString>
          <CharString index="432">
            hlineto
            -24 -164 rlineto
            43 hlineto
            24 164 rlineto
            return
          </CharString>
          <CharString index="433">
            rmoveto
            176 callgsubr
            return
          </CharString>
          <CharString index="434">
            rmoveto
            341 40 -341 hlineto
            return
          </CharString>
          <CharString index="435">
            463 261 callsubr
            return
          </CharString>
          <CharString index="436">
            vhcurveto
            -79 287 callsubr
            return
          </CharString>
          <CharString index="437">
            60 37 6 10 24 return
          </CharString>
          <CharString index="438">
            vlineto
            181 callsubr
            return
          </CharString>
          <CharString index="439">
            -178 -82 hlineto
            return
          </CharString>
          <CharString index="440">
            rlineto
            55 hlineto
            118 123 rlineto
            38 40 return
          </CharString>
          <CharString index="441">
            0 -30 228 callgsubr
            return
          </CharString>
          <CharString index="442">
            -27 -18 -14 -32 -45 vvcurveto
            -77 41 -32 75 return
          </CharString>
          <CharString index="443">
            -75 50 -42 95 51 48 10 10 22 vhcurveto
            return
          </CharString>
          <CharString index="444">
            vlineto
            75 -40 42 -100 -95 -45 -42 -75 vhcurveto
            return
          </CharString>
          <CharString index="445">
            209 vlineto
            60 return
          </CharString>
          <CharString index="446">
            -4 -7 -21 hvcurveto
            return
          </CharString>
        <CharString name=".notdef">
          360 180 hmoveto
          390 701 -390 hlineto
          54 -50 rmoveto
          282 -601 -282 hlineto
          endchar
        </CharString>
        <CharString name="A">
          34 127 240 -56 callgsubr
        </CharString>
        <CharString name="AE">
          252 176 240 rmoveto
          178 385 rlineto
          -385 vlineto
          276 381 rmoveto
          45 -307 vlineto
          -313 -666 rlineto
          55 hlineto
          90 195 rlineto
          199 -195 276 293 callgsubr
        </CharString>
        <CharString name="Aacute">
          34 287 333 callgsubr
          -105 -468 -56 callgsubr
        </CharString>
        <CharString name="Abreve">
          34 276 813 46 callsubr
          -192 -573 -56 callgsubr
        </CharString>
        <CharString name="Acircumflex">
          34 213 776 51 callgsubr
          -51 -468 -56 callgsubr
        </CharString>
        <CharString name="Adieresis">
          34 274 726 rmoveto
          65 callgsubr
          -125 hmoveto
          65 callgsubr
          -22 -486 -56 callgsubr
        </CharString>
        <CharString name="Agrave">
          34 224 708 rmoveto
          -37 105 rlineto
          -55 hlineto
          55 -105 rlineto
          -60 -468 -56 callgsubr
        </CharString>
        <CharString name="Amacron">
          34 315 780 rmoveto
          -210 -39 210 hlineto
          -188 -501 -56 callgsubr
        </CharString>
        <CharString name="Aogonek">
          34 127 240 rmoveto
          85 369 85 -369 rlineto
          107 -240 rmoveto
          -156 666 rlineto
          -72 hlineto
          -156 -666 rlineto
          52 hlineto
          45 195 rlineto
          190 hlineto
          45 -195 rlineto
          18 hlineto
          1 callgsubr
          endchar
        </CharString>
        <CharString name="Aring">
          34 212 798 rmoveto
          23 14 -15 -22 -23 -14 -15 -23 -23 -14 15 23 22 14 15 23 hvcurveto
          -108 vmoveto
          47 25 32 39 39 -25 31 -47 -46 -26 -31 -39 -39 26 -32 46 hvcurveto
          -85 -450 -56 callgsubr
        </CharString>
        <CharString name="Atilde">
          34 144 732 rmoveto
          19 7 11 16 vhcurveto
          35 28 -41 46 hhcurveto
          38 22 24 42 hvcurveto
          16 -43 -13 vlineto
          -19 -5 -11 -17 vhcurveto
          1 -29 -33 40 -46 hhcurveto
          -44 -18 -30 -36 hvcurveto
          -16 43 vlineto
          -17 -479 -56 callgsubr
        </CharString>
        <CharString name="B">
          71 346 314 callsubr
          -112 267 112 hlineto
          248 callsubr
          -115 414 rmoveto
          248 callsubr
          -54 vlineto
          298 callgsubr
          -106 264 hlineto
          265 -105 rmoveto
          86 -49 64 -110 vhcurveto
          -156 -666 162 hlineto
          110 49 64 86 hvcurveto
          57 vlineto
          63 -26 46 -55 20 vhcurveto
          51 21 24 44 61 vvcurveto
          endchar
        </CharString>
        <CharString name="C">
          -1 65 536 rmoveto
          -406 vlineto
          -84 52 -51 117 44 43 7 9 28 vhcurveto
          47 vlineto
          194 callsubr
          406 vlineto
          64 callgsubr
          endchar
        </CharString>
        <CharString name="CR">
          -390 endchar
        </CharString>
        <CharString name="Cacute">
          -1 238 813 -10 callsubr
          -228 -277 rmoveto
          -406 vlineto
          -84 52 -51 117 44 43 7 9 28 vhcurveto
          47 vlineto
          194 callsubr
          406 vlineto
          64 callgsubr
          endchar
        </CharString>
        <CharString name="Ccaron">
          -1 199 708 -28 callsubr
          -36 -277 rmoveto
          64 callgsubr
          -406 232 callsubr
        </CharString>
        <CharString name="Ccedilla">
          -1 349 58 rmoveto
          194 callsubr
          406 vlineto
          64 callgsubr
          -406 vlineto
          -76 43 -50 96 -8 vhcurveto
          -13 -63 99 callsubr
          8 35 rlineto
          43 43 7 9 28 hvcurveto
          endchar
        </CharString>
        <CharString name="D">
          68 219 callsubr
          146 callgsubr
          109 -150 rmoveto
          -366 vlineto
          298 callgsubr
          -109 576 109 hlineto
          248 callsubr
          endchar
        </CharString>
        <CharString name="Dcaron">
          68 200 708 -28 callsubr
          191 -663 rmoveto
          298 callgsubr
          -109 576 259 callgsubr
          -666 146 callgsubr
          endchar
        </CharString>
        <CharString name="Dcroat">
          68 343 314 callsubr
          -109 266 113 45 -113 265 259 callgsubr
          -310 -60 -45 60 -311 146 callgsubr
          endchar
        </CharString>
        <CharString name="E">
          1 75 666 165 callgsubr
        </CharString>
        <CharString name="Eacute">
          1 234 813 -10 callsubr
          -214 -147 165 callgsubr
        </CharString>
        <CharString name="Ecaron">
          1 193 708 -28 callsubr
          206 -192 rmoveto
          45 -276 -666 276 45 -226 268 197 45 -197 263 vlineto
          endchar
        </CharString>
        <CharString name="Ecircumflex">
          1 208 776 51 callgsubr
          178 -87 rmoveto
          45 -276 -666 276 45 -226 268 197 45 -197 263 vlineto
          endchar
        </CharString>
        <CharString name="Edieresis">
          1 120 759 rmoveto
          -19 9 -14 24 125 callsubr
          vhcurveto
          125 hmoveto
          -19 9 -14 24 125 callsubr
          vhcurveto
          -170 -93 165 callgsubr
        </CharString>
        <CharString name="Edotaccent">
          1 75 666 4 callsubr
          -165 122 rmoveto
          -19 9 -14 24 125 callsubr
          vhcurveto
          endchar
        </CharString>
        <CharString name="Egrave">
          1 75 666 4 callsubr
          -211 147 116 callgsubr
        </CharString>
        <CharString name="Emacron">
          1 75 666 4 callsubr
          -241 114 205 callgsubr
        </CharString>
        <CharString name="Eogonek">
          1 351 621 rmoveto
          45 -276 -666 243 vlineto
          1 callgsubr
          1 293 callgsubr
        </CharString>
        <CharString name="Eth">
          68 343 314 callsubr
          -109 259 122 45 -122 272 259 callgsubr
          -317 -76 -45 76 -304 146 callgsubr
          endchar
        </CharString>
        <CharString name="Euro">
          -1 115 253 rmoveto
          169 40 -169 92 169 40 -169 111 hlineto
          64 callgsubr
          -111 -52 -40 52 -92 -52 -40 52 -123 232 callsubr
        </CharString>
        <CharString name="F">
          -28 219 callsubr
          50 303 208 45 -208 273 217 45 vlineto
          endchar
        </CharString>
        <CharString name="G">
          25 callgsubr
          endchar
        </CharString>
        <CharString name="Gbreve">
          25 callgsubr
          222 283 46 callsubr
          endchar
        </CharString>
        <CharString name="H">
          95 359 666 rmoveto
          -317 -234 317 -50 -666 50 304 234 -304 51 666 vlineto
          endchar
        </CharString>
        <CharString name="I">
          -190 219 callsubr
          50 666 vlineto
          endchar
        </CharString>
        <CharString name="Iacute">
          1 234 813 -10 callsubr
          -214 -147 165 callgsubr
        </CharString>
        <CharString name="Icircumflex">
          -190 75 hmoveto
          50 666 -50 hlineto
          54 147 285 callsubr
        </CharString>
        <CharString name="Idieresis">
          -190 219 callsubr
          50 666 vlineto
          -122 93 83 callsubr
        </CharString>
        <CharString name="Idotaccent">
          -190 219 callsubr
          50 666 vlineto
          -60 122 rmoveto
          -19 9 -14 24 125 callsubr
          vhcurveto
          endchar
        </CharString>
        <CharString name="Igrave">
          1 75 666 4 callsubr
          -209 147 116 callgsubr
        </CharString>
        <CharString name="Imacron">
          -190 219 callsubr
          50 666 vlineto
          -129 114 205 callgsubr
        </CharString>
        <CharString name="Iogonek">
          -190 125 666 rmoveto
          -50 -666 18 hlineto
          1 callgsubr
          endchar
        </CharString>
        <CharString name="J">
          -190 75 666 rmoveto
          -472 vlineto
          -101 -13 -63 -21 -73 vhcurveto
          -30 -106 rlineto
          50 hlineto
          31 105 rlineto
          15 53 18 71 115 vvcurveto
          471 vlineto
          endchar
        </CharString>
        <CharString name="K">
          191 callsubr
          endchar
        </CharString>
        <CharString name="L">
          -51 219 callsubr
          259 45 -209 621 vlineto
          endchar
        </CharString>
        <CharString name="Lacute">
          -51 116 813 -10 callsubr
          -96 -147 rmoveto
          -666 259 45 -209 621 vlineto
          endchar
        </CharString>
        <CharString name="Lcaron">
          -51 78 708 -28 callsubr
          95 -768 rmoveto
          621 -50 -666 259 45 vlineto
          endchar
        </CharString>
        <CharString name="Lslash">
          -51 125 45 rmoveto
          266 vlineto
          100 56 rlineto
          45 vlineto
          -100 -56 rlineto
          310 -50 -337 vlineto
          -55 -31 rlineto
          -45 vlineto
          55 31 rlineto
          -284 259 45 vlineto
          endchar
        </CharString>
        <CharString name="M">
          211 459 666 rmoveto
          -159 -439 -159 439 rlineto
          -66 -666 47 385 hlineto
          103 -4 94 0 vhcurveto
          150 -402 rlineto
          64 hlineto
          149 402 rlineto
          0 -3 -81 -117 vvcurveto
          -384 48 666 vlineto
          endchar
        </CharString>
        <CharString name="N">
          101 366 666 137 callsubr
        </CharString>
        <CharString name="NULL">
          -390 endchar
        </CharString>
        <CharString name="Nacute">
          101 269 813 -10 callsubr
          42 131 callsubr
        </CharString>
        <CharString name="Ncaron">
          101 226 708 -28 callsubr
          188 131 callsubr
        </CharString>
        <CharString name="Ntilde">
          101 366 666 -31 callgsubr
          -87 137 -34 callgsubr
        </CharString>
        <CharString name="O">
          114 callsubr
          endchar
        </CharString>
        <CharString name="OE">
          269 244 45 rmoveto
          -79 -30 41 64 hvcurveto
          366 vlineto
          64 30 41 79 vhcurveto
          109 -576 hlineto
          276 576 rmoveto
          45 -385 vlineto
          -110 -49 -64 -86 hvcurveto
          -366 vlineto
          -86 49 -64 110 vhcurveto
          385 293 callgsubr
        </CharString>
        <CharString name="Oacute">
          58 241 813 -10 callsubr
          -231 -290 -68 callsubr
          endchar
        </CharString>
        <CharString name="Ocircumflex">
          58 223 776 51 callgsubr
          145 -565 rmoveto
          41 callsubr
          380 vlineto
          64 30 44 79 79 30 -44 -64 vhcurveto
          -268 -380 rmoveto
          119 callgsubr
          380 vlineto
          86 -49 67 243 callgsubr
          -49 -67 -86 vhcurveto
          endchar
        </CharString>
        <CharString name="Odieresis">
          58 128 759 rmoveto
          -19 9 -14 24 125 callsubr
          vhcurveto
          125 hmoveto
          -19 9 -14 24 125 callsubr
          vhcurveto
          -188 -236 -68 callsubr
          endchar
        </CharString>
        <CharString name="Ograve">
          114 callsubr
          -190 290 116 callgsubr
        </CharString>
        <CharString name="Ohungarumlaut">
          58 281 813 94 callsubr
          -192 -290 -68 callsubr
          endchar
        </CharString>
        <CharString name="Omacron">
          58 120 780 rmoveto
          -39 210 39 vlineto
          -265 -257 -68 callsubr
          endchar
        </CharString>
        <CharString name="Oslash">
          58 333 143 rmoveto
          -64 -30 -44 -79 -42 -28 12 21 -17 vhcurveto
          195 474 rlineto
          1 -6 0 -6 -7 vvcurveto
          -218 hmoveto
          64 30 44 79 42 28 -12 -21 17 vhcurveto
          -195 -474 rlineto
          -1 6 0 6 7 vvcurveto
          268 523 rmoveto
          -44 hlineto
          -9 -21 rlineto
          19 -25 -35 12 -46 hhcurveto
          -110 -49 -67 -86 hvcurveto
          -380 vlineto
          -33 7 -30 16 -25 vhcurveto
          -23 -55 rlineto
          44 hlineto
          9 21 rlineto
          -19 25 35 -12 46 hhcurveto
          277 callgsubr
          hvcurveto
          380 vlineto
          33 -7 30 -16 25 vhcurveto
          endchar
        </CharString>
        <CharString name="Otilde">
          114 callsubr
          -33 280 -34 callgsubr
        </CharString>
        <CharString name="P">
          41 219 callsubr
          50 239 97 vlineto
          110 49 64 86 hvcurveto
          127 vlineto
          86 -49 64 -110 vhcurveto
          109 -150 rmoveto
          -127 vlineto
          298 callgsubr
          -97 337 97 hlineto
          248 callsubr
          endchar
        </CharString>
        <CharString name="Q">
          58 115 523 rmoveto
          64 30 44 79 79 30 -44 -64 vhcurveto
          -380 121 callsubr
          312 -247 rmoveto
          -106 119 rlineto
          42 27 20 47 54 vvcurveto
          380 vlineto
          86 -49 67 243 callgsubr
          -49 -67 -86 vhcurveto
          -380 vlineto
          278 callsubr
          18 17 2 3 15 vhcurveto
          88 -99 rlineto
          endchar
        </CharString>
        <CharString name="R">
          60 125 322 27 callgsubr
        </CharString>
        <CharString name="Racute">
          60 301 333 callgsubr
          -121 -386 27 callgsubr
        </CharString>
        <CharString name="Rcaron">
          60 200 708 -28 callsubr
          -27 -491 27 callgsubr
        </CharString>
        <CharString name="S">
          -16 30 537 -55 callsubr
          endchar
        </CharString>
        <CharString name="Sacute">
          -16 205 813 -10 callsubr
          -230 -276 -55 callsubr
          endchar
        </CharString>
        <CharString name="Scaron">
          -16 172 708 -28 callsubr
          17 -430 rmoveto
          -42 23 -19 27 49 vvcurveto
          57 vlineto
          57 38 29 74 48 48 -7 -10 28 vhcurveto
          48 vlineto
          8 -28 -45 7 -51 hhcurveto
          -108 -54 -52 -82 hvcurveto
          -58 vlineto
          -67 29 -40 55 -30 vhcurveto
          117 -64 rlineto
          44 -24 14 -24 -47 vvcurveto
          -49 vlineto
          -54 -34 -39 -92 -48 -50 10 298 callsubr
          -10 28 50 -9 51 hhcurveto
          121 55 53 86 hvcurveto
          52 vlineto
          62 -26 40 -55 30 vhcurveto
          endchar
        </CharString>
        <CharString name="T">
          -56 324 666 168 callsubr
        </CharString>
        <CharString name="Tcaron">
          -56 143 708 -28 callsubr
          229 -147 168 callsubr
        </CharString>
        <CharString name="Thorn">
          33 341 276 rmoveto
          -64 -30 -39 -79 vhcurveto
          -97 322 97 hlineto
          248 callsubr
          -206 150 rmoveto
          126 -50 -666 50 126 97 vlineto
          110 49 64 86 hvcurveto
          114 vlineto
          86 -49 64 -110 vhcurveto
          endchar
        </CharString>
        <CharString name="U">
          90 callsubr
          endchar
        </CharString>
        <CharString name="Uacute">
          68 248 813 -10 callsubr
          35 -147 -42 callsubr
          endchar
        </CharString>
        <CharString name="Ucircumflex">
          68 228 776 51 callgsubr
          145 -42 -42 callsubr
          endchar
        </CharString>
        <CharString name="Udieresis">
          68 133 759 rmoveto
          -19 9 -14 24 125 callsubr
          vhcurveto
          125 hmoveto
          -19 9 -14 24 125 callsubr
          vhcurveto
          80 -93 -42 callsubr
          endchar
        </CharString>
        <CharString name="Ugrave">
          90 callsubr
          -233 147 116 callgsubr
        </CharString>
        <CharString name="Uhungarumlaut">
          90 callsubr
          -110 147 94 callsubr
          endchar
        </CharString>
        <CharString name="Umacron">
          90 callsubr
          -264 114 205 callgsubr
        </CharString>
        <CharString name="Uogonek">
          68 338 666 rmoveto
          -523 121 callsubr
          523 -50 -523 vlineto
          278 callsubr
          13 12 1 2 12 vhcurveto
          -24 -25 -15 -32 -31 vvcurveto
          -43 26 -22 52 vhcurveto
          12 42 -12 hlineto
          -26 -13 9 27 31 18 35 31 24 hvcurveto
          50 26 23 50 59 vvcurveto
          523 vlineto
          endchar
        </CharString>
        <CharString name="Uring">
          68 160 761 36 callsubr
          69 -95 -42 callsubr
          endchar
        </CharString>
        <CharString name="V">
          12 335 666 rmoveto
          -76 -343 -19 -90 -20 -90 -19 -90 rlinecurve
          -19 90 -20 89 -19 90 -76 344 rcurveline
          -52 hlineto
          150 -666 rlineto
          72 hlineto
          150 666 rlineto
          endchar
        </CharString>
        <CharString name="W">
          223 536 666 rmoveto
          -74 -446 rlineto
          -11 -68 -15 -107 0 vvcurveto
          0 -15 107 -11 68 vhcurveto
          -74 446 rlineto
          -59 hlineto
          -74 -445 rlineto
          -15 -88 -11 -88 0 vvcurveto
          0 -12 89 -14 86 vhcurveto
          -74 446 rlineto
          -52 hlineto
          116 -666 rlineto
          72 hlineto
          61 352 rlineto
          22 126 10 109 0 vvcurveto
          0 10 -105 23 -131 vhcurveto
          61 -351 rlineto
          72 hlineto
          116 666 rlineto
          endchar
        </CharString>
        <CharString name="X">
          -18 302 666 rmoveto
          -116 -273 -116 273 rlineto
          -55 hlineto
          145 -333 -145 -333 rlineto
          55 hlineto
          116 272 116 -272 rlineto
          55 hlineto
          -146 333 146 333 rlineto
          endchar
        </CharString>
        <CharString name="Y">
          0 333 666 85 callgsubr
          endchar
        </CharString>
        <CharString name="Yacute">
          0 333 666 85 callgsubr
          -174 147 248 callgsubr
        </CharString>
        <CharString name="Ydieresis">
          0 93 759 rmoveto
          -19 9 -14 24 125 callsubr
          vhcurveto
          125 hmoveto
          -19 9 -14 24 125 callsubr
          vhcurveto
          115 -93 85 callgsubr
          endchar
        </CharString>
        <CharString name="Z">
          226 callsubr
          endchar
        </CharString>
        <CharString name="Zacute">
          -19 202 813 -10 callsubr
          -221 -147 250 callsubr
          endchar
        </CharString>
        <CharString name="Zcaron">
          -19 168 708 -28 callsubr
          221 -147 rmoveto
          -305 -45 252 hlineto
          156 callgsubr
          endchar
        </CharString>
        <CharString name="Zdotaccent">
          226 callsubr
          -191 122 rmoveto
          -19 9 -14 24 125 callsubr
          vhcurveto
          endchar
        </CharString>
        <CharString name="a">
          -96 callsubr
          endchar
        </CharString>
        <CharString name="aacute">
          -96 callsubr
          -79 423 248 callgsubr
        </CharString>
        <CharString name="abreve">
          -96 callsubr
          -27 423 46 callsubr
          endchar
        </CharString>
        <CharString name="acircumflex">
          32 215 676 51 callgsubr
          123 -522 rmoveto
          -24 -27 -45 -22 -53 hhcurveto
          -70 -24 30 59 hvcurveto
          31 vlineto
          46 19 27 68 20 vhcurveto
          132 37 rlineto
          -242 210 rmoveto
          11 31 50 9 46 hhcurveto
          93 22 -32 -56 hvcurveto
          -95 vlineto
          -148 -42 rlineto
          -84 -24 -36 -45 -64 vvcurveto
          -32 vlineto
          -82 41 -52 99 68 29 20 24 31 vhcurveto
          -40 49 432 vlineto
          85 -47 51 -117 -49 -50 -9 -9 -28 vhcurveto
          endchar
        </CharString>
        <CharString name="acute">
          -40 166 713 248 callgsubr
        </CharString>
        <CharString name="adieresis">
          -96 callsubr
          -189 369 83 callsubr
        </CharString>
        <CharString name="ae">
          258 331 513 rmoveto
          35 -25 -46 20 -72 hhcurveto
          -49 -50 -9 -9 -28 hvcurveto
          -50 vlineto
          11 31 50 9 46 hhcurveto
          93 22 -32 -56 hvcurveto
          -95 vlineto
          -148 -42 rlineto
          -84 -24 -36 -45 -64 vvcurveto
          -32 vlineto
          -82 41 -52 99 61 62 21 31 35 vhcurveto
          -35 29 52 -18 75 290 callgsubr
          -40 35 62 hvcurveto
          113 265 167 vlineto
          86 -46 68 -110 -64 -45 -30 -30 -22 vhcurveto
          -28 -432 rmoveto
          -24 -27 -45 -17 -53 hhcurveto
          -70 -24 30 59 hvcurveto
          31 vlineto
          46 19 27 68 20 vhcurveto
          132 37 rlineto
          265 129 rmoveto
          -122 -215 122 vlineto
          64 30 45 79 79 27 -45 -64 vhcurveto
          endchar
        </CharString>
        <CharString name="agrave">
          -96 callsubr
          -171 423 116 callgsubr
        </CharString>
        <CharString name="amacron">
          -96 callsubr
          -205 390 205 callgsubr
        </CharString>
        <CharString name="ampersand">
          55 338 143 rmoveto
          -64 -37 -44 -79 -79 -40 44 64 vhcurveto
          68 vlineto
          62 27 46 75 vhcurveto
          133 hlineto
          90 45 rmoveto
          -40 57 -50 -57 -135 hlineto
          -75 -24 45 63 hvcurveto
          54 vlineto
          55 26 42 103 48 46 -10 -11 31 vhcurveto
          50 vlineto
          9 -28 -46 10 -51 hhcurveto
          -127 -52 -61 -84 hvcurveto
          -54 vlineto
          -63 24 -47 55 -21 vhcurveto
          -55 -21 -25 -47 -62 vvcurveto
          -68 vlineto
          -86 59 154 callgsubr
          56 67 86 vhcurveto
          176 40 vlineto
          endchar
        </CharString>
        <CharString name="aogonek">
          32 303 86 rmoveto
          -24 -27 -45 -22 -53 hhcurveto
          -70 -24 30 59 hvcurveto
          31 vlineto
          46 19 27 68 20 vhcurveto
          132 37 rlineto
          -242 210 rmoveto
          11 31 50 9 46 hhcurveto
          93 22 -32 -56 hvcurveto
          -95 vlineto
          -148 -42 rlineto
          -84 -24 -36 -45 -64 vvcurveto
          -32 vlineto
          -82 41 -52 99 68 29 20 24 31 vhcurveto
          -40 16 vlineto
          1 callgsubr
          1 432 hlineto
          85 -47 51 -117 -49 -50 -9 -9 -28 vhcurveto
          endchar
        </CharString>
        <CharString name="apostrophemod">
          -243 70 708 187 callgsubr
        </CharString>
        <CharString name="approxequal">
          31 337 315 71 callsubr
          -37 130 71 callsubr
          endchar
        </CharString>
        <CharString name="aring">
          -96 callsubr
          -166 371 36 callsubr
          endchar
        </CharString>
        <CharString name="asciicircum">
          -105 276 374 rmoveto
          -99 270 rlineto
          -73 hlineto
          -100 -270 rlineto
          47 hlineto
          89 248 89 -248 rlineto
          endchar
        </CharString>
        <CharString name="asciitilde">
          -15 313 382 71 callsubr
          endchar
        </CharString>
        <CharString name="asterisk">
          89 414 632 rmoveto
          -13 39 -100 -33 -25 -8 -15 -10 -8 -8 rlinecurve
          4 11 5 17 27 vvcurveto
          104 -41 -104 vlineto
          -27 5 -17 5 -11 vhcurveto
          -9 8 -15 10 -26 8 -99 32 rcurveline
          -12 -39 99 -32 26 -8 17 -1 12 1 rlinecurve
          -11 -6 -13 -11 -16 -22 -61 -84 rcurveline
          33 -24 61 85 16 21 6 17 3 11 rlinecurve
          2 -11 7 -17 16 -22 61 -84 rcurveline
          33 24 -62 85 -16 21 -13 11 -10 6 rlinecurve
          11 -1 18 1 26 9 rrcurveto
          endchar
        </CharString>
        <CharString name="at">
          451 509 120 rmoveto
          0 -36 -33 -69 -46 -30 19 51 vhcurveto
          12 vlineto
          55 30 12 50 15 vhcurveto
          101 30 rlineto
          -1 -387 rmoveto
          42 -84 vlineto
          -221 -80 124 211 211 80 124 221 221 81 -113 -211 -160 -43 -46 -56 -48 -24 22 59 hvcurveto
          225 vlineto
          72 -37 52 -92 -41 -44 -7 -9 -37 vhcurveto
          -45 vlineto
          13 57 27 4 38 hhcurveto
          67 16 -33 -47 hvcurveto
          -55 vlineto
          -108 -32 rlineto
          -72 -22 -51 -27 -77 vvcurveto
          -11 vlineto
          -74 48 -40 78 71 39 25 10 12 vhcurveto
          -28 17 31 -18 53 hhcurveto
          92 54 69 180 238 -97 128 -252 -248 -100 -139 -238 -238 96 -139 252 hvcurveto
          endchar
        </CharString>
        <CharString name="atilde">
          -96 callsubr
          -17 413 -34 callgsubr
        </CharString>
        <CharString name="b">
          53 75 713 rmoveto
          -713 156 vlineto
          88 59 53 95 hvcurveto
          284 vlineto
          85 -52 49 -83 -46 -48 -17 -10 -25 vhcurveto
          174 vlineto
          204 -281 rmoveto
          -284 vlineto
          -71 -39 -32 -69 vhcurveto
          -95 446 hlineto
          14 38 39 14 41 hhcurveto
          53 32 -27 -60 hvcurveto
          endchar
        </CharString>
        <CharString name="backslash">
          -23 31 764 rmoveto
          269 -884 rlineto
          44 hlineto
          -269 884 rlineto
          endchar
        </CharString>
        <CharString name="bar">
          -187 80 784 rmoveto
          -924 43 924 vlineto
          endchar
        </CharString>
        <CharString name="braceleft">
          -55 185 648 rmoveto
          44 23 30 70 vhcurveto
          7 42 -8 hlineto
          -88 -49 -43 -73 hvcurveto
          -231 vlineto
          -44 -26 -30 -52 vhcurveto
          -2 -42 2 hlineto
          52 26 -30 -44 hvcurveto
          -231 vlineto
          -73 49 -43 88 vhcurveto
          8 42 -7 hlineto
          -70 -23 30 44 hvcurveto
          211 vlineto
          68 -17 40 -67 7 vhcurveto
          67 7 17 40 68 vvcurveto
          endchar
        </CharString>
        <CharString name="braceright">
          -55 273 343 rmoveto
          -52 -26 30 44 hvcurveto
          231 vlineto
          73 -49 43 -88 vhcurveto
          -8 -42 7 hlineto
          70 23 -30 -44 hvcurveto
          -211 vlineto
          -68 17 -40 67 -7 vhcurveto
          -67 -7 -17 -40 -68 vvcurveto
          -211 vlineto
          -44 -23 -30 -70 vhcurveto
          -7 -42 8 hlineto
          88 49 43 73 hvcurveto
          231 vlineto
          44 26 30 52 vhcurveto
          2 42 hlineto
          endchar
        </CharString>
        <CharString name="bracketleft">
          -115 125 724 rmoveto
          124 40 -169 -884 169 40 -124 hlineto
          endchar
        </CharString>
        <CharString name="bracketright">
          -115 26 764 rmoveto
          -40 124 -804 -124 -40 169 884 vlineto
          endchar
        </CharString>
        <CharString name="breve">
          -40 239 713 46 callsubr
          endchar
        </CharString>
        <CharString name="brokenbar">
          -187 80 784 rmoveto
          -375 43 375 vlineto
          -43 -549 rmoveto
          -375 43 375 vlineto
          endchar
        </CharString>
        <CharString name="bullet">
          -116 72 322 rmoveto
          -38 17 -27 48 47 18 27 38 37 -18 28 -47 -48 -17 -28 -37 vhcurveto
          endchar
        </CharString>
        <CharString name="c">
          -21 65 433 rmoveto
          -304 vlineto
          -84 44 -50 117 43 35 7 7 25 vhcurveto
          81 callsubr
          endchar
        </CharString>
        <CharString name="cacute">
          -21 243 713 -10 callsubr
          -233 -280 rmoveto
          -304 vlineto
          -84 44 -50 117 43 35 7 7 25 vhcurveto
          81 callsubr
          endchar
        </CharString>
        <CharString name="caron">
          -40 210 713 rmoveto
          -35 -68 -35 68 rlineto
          -36 hlineto
          48 -105 rlineto
          46 hlineto
          48 105 rlineto
          endchar
        </CharString>
        <CharString name="ccaron">
          -21 195 608 -28 callsubr
          -32 -280 rmoveto
          55 18 34 93 37 36 -5 -8 28 vhcurveto
          46 vlineto
          7 -23 -36 6 -42 hhcurveto
          -117 -44 -51 -84 hvcurveto
          -304 vlineto
          -84 44 -50 117 43 35 7 7 25 vhcurveto
          47 vlineto
          -9 -27 -35 -6 -41 hhcurveto
          -93 -18 33 55 hvcurveto
          endchar
        </CharString>
        <CharString name="ccedilla">
          -21 226 -5 rmoveto
          43 35 7 7 25 hvcurveto
          81 callsubr
          -304 vlineto
          -75 35 -48 91 -9 vhcurveto
          -13 -64 99 callsubr
          8 35 rlineto
          endchar
        </CharString>
        <CharString name="cedilla">
          -40 151 6 rmoveto
          -15 -73 99 callsubr
          10 46 rlineto
          endchar
        </CharString>
        <CharString name="cent">
          15 339 56 rmoveto
          -9 -27 -35 -6 -41 hhcurveto
          -93 -18 33 55 hvcurveto
          304 vlineto
          55 18 34 93 37 36 -5 -8 28 vhcurveto
          46 vlineto
          -19 6 -29 5 -33 2 rrcurveto
          85 -45 -86 vlineto
          -98 -7 -38 -49 -78 vvcurveto
          -304 vlineto
          -78 38 -49 99 -6 vhcurveto
          -76 45 76 vlineto
          33 1 28 6 21 6 rrcurveto
          endchar
        </CharString>
        <CharString name="circumflex">
          -40 246 608 rmoveto
          -48 105 rlineto
          -46 hlineto
          -48 -105 rlineto
          36 hlineto
          35 68 35 -68 rlineto
          endchar
        </CharString>
        <CharString name="colon">
          -202 30 382 rmoveto
          3 callsubr
          -350 vmoveto
          3 callsubr
          endchar
        </CharString>
        <CharString name="comma">
          -264 270 callsubr
          endchar
        </CharString>
        <CharString name="copyright">
          291 50 321 rmoveto
          -186 62 -135 230 225 64 138 183 189 -51 134 -238 -236 -56 -137 -186 vhcurveto
          176 53 rmoveto
          -105 vlineto
          -78 31 -49 99 22 30 3 4 22 vhcurveto
          48 vlineto
          -7 -19 -19 -4 -36 hhcurveto
          -78 -5 36 47 hvcurveto
          105 vlineto
          47 5 37 78 35 19 -4 -7 19 vhcurveto
          47 vlineto
          5 -22 -29 2 -22 hhcurveto
          -99 -31 -49 -78 hvcurveto
          358 -53 rmoveto
          -159 -39 -118 -203 -209 -36 115 162 162 33 117 212 211 31 -115 -164 vhcurveto
          endchar
        </CharString>
        <CharString name="currency">
          70 134 368 rmoveto
          64 17 35 79 79 17 -35 -64 vhcurveto
          -70 vlineto
          -64 -17 -35 -79 -79 -17 35 64 vhcurveto
          241 70 rmoveto
          27 -4 25 -8 20 vhcurveto
          44 43 -35 35 -38 -37 rlineto
          19 -23 -33 11 -48 hhcurveto
          -48 -33 -11 -19 -23 hvcurveto
          -38 37 -35 -35 44 -43 rlineto
          -8 -20 -4 -25 -27 vvcurveto
          -70 vlineto
          -27 4 -25 8 -20 vhcurveto
          -44 -43 35 -35 38 37 rlineto
          -19 23 33 -11 48 hhcurveto
          48 33 11 19 23 hvcurveto
          38 -37 35 35 -44 43 rlineto
          8 20 4 25 27 vvcurveto
          endchar
        </CharString>
        <CharString name="d">
          123 callsubr
          endchar
        </CharString>
        <CharString name="dagger">
          256 callgsubr
          0 -4 -64 -59 vvcurveto
          -514 43 514 vlineto
          59 -4 64 0 vhcurveto
          0 46 -4 52 vhcurveto
          40 vlineto
          -52 -46 -4 0 hvcurveto
          0 4 66 58 vvcurveto
          endchar
        </CharString>
        <CharString name="daggerdbl">
          256 callgsubr
          -2 -150 0 -181 2 -150 rrcurveto
          0 -40 4 -58 vhcurveto
          -40 vlineto
          58 40 4 0 hvcurveto
          0 -4 -51 -73 vvcurveto
          43 hlineto
          73 -4 51 0 vhcurveto
          316 callgsubr
          2 150 0 181 -2 150 rrcurveto
          316 callgsubr
          0 4 66 58 vvcurveto
          endchar
        </CharString>
        <CharString name="danda">
          -115 150 hmoveto
          45 644 -45 hlineto
          endchar
        </CharString>
        <CharString name="dcaron">
          123 callsubr
          118 194 -60 callsubr
          endchar
        </CharString>
        <CharString name="dcroat">
          53 318 82 rmoveto
          -20 -20 -36 -20 -52 hhcurveto
          -63 -32 32 67 hvcurveto
          280 vlineto
          64 38 32 70 vhcurveto
          95 hlineto
          90 149 rmoveto
          -40 47 -50 -47 -123 -41 123 -62 -107 hlineto
          -82 -64 -48 -94 hvcurveto
          -279 vlineto
          -93 49 -52 95 57 31 17 17 22 vhcurveto
          -31 49 625 40 vlineto
          endchar
        </CharString>
        <CharString name="degree">
          -38 55 23 callgsubr
          -75 30 -59 94 94 31 59 75 75 -31 60 -94 -94 -30 -60 -75 vhcurveto
          209 -1 rmoveto
          -52 -12 -42 -73 -73 -11 42 52 52 11 43 73 73 12 -43 -52 vhcurveto
          endchar
        </CharString>
        <CharString name="dieresis">
          -40 79 659 83 callsubr
        </CharString>
        <CharString name="divide">
          31 40 341 rmoveto
          -40 341 40 vlineto
          -200 -193 rmoveto
          -19 9 -14 24 125 callsubr
          vhcurveto
          343 273 callgsubr
        </CharString>
        <CharString name="dollar">
          -16 141 383 rmoveto
          -42 23 -19 27 49 vvcurveto
          57 vlineto
          57 38 29 74 48 48 -7 -10 28 vhcurveto
          48 vlineto
          -25 7 -39 7 -44 1 rrcurveto
          62 -45 -63 vlineto
          -89 -9 -44 -50 -74 vvcurveto
          -58 vlineto
          -67 29 -40 55 -30 vhcurveto
          117 -64 rlineto
          44 -24 14 -24 -47 vvcurveto
          -49 vlineto
          -54 -34 -39 -92 -48 -50 10 298 callsubr
          26 -9 46 -9 47 -1 rrcurveto
          -75 45 77 vlineto
          97 9 44 51 77 vvcurveto
          52 vlineto
          62 -26 40 -55 30 vhcurveto
          endchar
        </CharString>
        <CharString name="dotaccent">
          -40 140 688 rmoveto
          -19 9 -14 24 125 callsubr
          vhcurveto
          endchar
        </CharString>
        <CharString name="dotlessi">
          148 callsubr
          endchar
        </CharString>
        <CharString name="dottedcircle">
          270 139 517 rmoveto
          -26 18 -19 26 26 18 19 26 25 -18 19 -26 -26 -18 -19 -25 vhcurveto
          -82 -110 rmoveto
          -25 20 -19 26 24 20 19 25 25 -20 19 -24 -26 -20 -19 -25 vhcurveto
          -13 -126 rmoveto
          -25 19 -18 25 26 18 18 335 callgsubr
          52 -116 rmoveto
          -26 18 -18 26 25 19 18 26 25 -19 19 -25 -26 -18 -19 -25 vhcurveto
          101 -75 rmoveto
          -26 19 -20 26 25 19 20 26 24 -19 20 -25 -26 -19 -20 -24 vhcurveto
          127 -16 rmoveto
          -26 18 -18 26 26 19 18 26 26 -19 18 -26 -26 -18 -18 -26 vhcurveto
          121 53 rmoveto
          -26 19 -18 25 25 20 18 26 25 -20 19 -25 -25 -19 -19 -25 vhcurveto
          73 98 rmoveto
          -25 19 -19 26 24 19 19 25 26 -19 19 -24 -26 -19 -19 -26 vhcurveto
          10 134 rmoveto
          -26 18 -18 26 25 19 18 26 26 -19 18 -25 -26 -18 -18 -26 vhcurveto
          -50 118 rmoveto
          -25 19 -19 25 26 18 19 335 callgsubr
          -95 68 rmoveto
          -24 19 -20 26 25 18 20 24 26 -18 19 -25 -26 -19 -19 -26 vhcurveto
          -126 15 rmoveto
          -26 18 -18 26 26 18 18 26 26 -18 18 -26 -26 -18 -18 -26 vhcurveto
          endchar
        </CharString>
        <CharString name="doubledanda">
          57 130 hmoveto
          45 644 -45 hlineto
          192 -644 rmoveto
          45 644 -45 hlineto
          endchar
        </CharString>
        <CharString name="dvA">
          160 425 23 callgsubr
          -391 -130 vlineto
          -24 callsubr
          100 40 vlineto
          endchar
        </CharString>
        <CharString name="dvAA">
          394 805 23 callgsubr
          -350 -391 -75 callgsubr
          160 275 callgsubr
        </CharString>
        <CharString name="dvAI">
          33 353 23 callgsubr
          -159 229 rlineto
          -52 hlineto
          164 -229 rlineto
          -326 -40 95 -492 hlineto
          336 callsubr
          42 vlineto
          -8 -23 -49 -12 -49 hhcurveto
          -72 -28 30 45 hvcurveto
          492 204 callgsubr
          vlineto
          endchar
        </CharString>
        <CharString name="dvAU">
          395 703 23 callgsubr
          -48 160 rlineto
          48 -14 -25 64 callsubr
          30 9 -18 -31 9 hvcurveto
          42 -139 rlineto
          -40 hlineto
          -109 170 -66 callsubr
          -117 -391 -75 callgsubr
          160 -604 -34 callsubr
        </CharString>
        <CharString name="dvAbbreviationsign">
          -38 55 335 rmoveto
          -75 30 -59 94 94 31 59 75 75 -31 60 -94 -94 -30 -60 -75 vhcurveto
          40 -1 rmoveto
          52 11 43 73 73 12 -43 -52 -52 -12 -42 -73 -73 -11 42 52 vhcurveto
          endchar
        </CharString>
        <CharString name="dvAcandra">
          160 425 253 rmoveto
          -75 callgsubr
          100 40 -145 vlineto
          127 175 rmoveto
          86 callsubr
          1 vlineto
          endchar
        </CharString>
        <CharString name="dvAnusvara">
          -390 -136 760 rmoveto
          -19 9 -14 24 125 callsubr
          vhcurveto
          endchar
        </CharString>
        <CharString name="dvAnusvara.amI">
          -390 13 740 rmoveto
          -19 9 -14 24 125 callsubr
          vhcurveto
          endchar
        </CharString>
        <CharString name="dvAvagraha">
          30 380 203 rmoveto
          60 -19 43 -64 33 vhcurveto
          -137 72 rlineto
          -45 24 -9 31 39 vvcurveto
          27 vlineto
          40 8 30 85 vhcurveto
          158 42 -158 hlineto
          -105 -33 -42 -70 hvcurveto
          -27 vlineto
          -60 19 -43 64 -33 vhcurveto
          137 -72 rlineto
          45 -24 9 -31 -39 vvcurveto
          -76 vlineto
          -50 -17 -40 -95 vhcurveto
          -2 hlineto
          -95 -17 40 50 hvcurveto
          70 -45 -70 vlineto
          -80 42 -52 115 vhcurveto
          2 hlineto
          115 42 52 80 hvcurveto
          endchar
        </CharString>
        <CharString name="dvB">
          -181 -20 23 callgsubr
          -40 350 40 vlineto
          -280 -256 rmoveto
          279 callgsubr
          45 -42 95 100 40 42 75 vhcurveto
          197 337 callsubr
          235 -185 rmoveto
          -179 226 rlineto
          20 13 25 14 46 hhcurveto
          72 23 -34 -42 hvcurveto
          -190 -5 rmoveto
          182 -230 rlineto
          -23 -12 -25 -13 -50 hhcurveto
          -75 -20 30 45 hvcurveto
          endchar
        </CharString>
        <CharString name="dvBA">
          17 95 346 -45 callgsubr
          -305 195 rmoveto
          -40 305 -113 vlineto
          195 callsubr
          -190 vlineto
          108 callsubr
          40 vlineto
          endchar
        </CharString>
        <CharString name="dvBH">
          6 259 175 47 callsubr
          222 40 rmoveto
          -177 146 -21 callsubr
          -146 210 callsubr
          -101 -48 callgsubr
          171 177 vlineto
          endchar
        </CharString>
        <CharString name="dvBHA">
          181 259 175 47 callsubr
          40 vmoveto
          210 callgsubr
          -101 -48 callgsubr
          171 142 -346 287 callsubr
          -145 -22 callgsubr
          endchar
        </CharString>
        <CharString name="dvBH_LA">
          604 259 175 47 callsubr
          105 298 rmoveto
          -40 505 -144 vlineto
          -7 callgsubr
          -76 -41 -34 -56 -10 hvcurveto
          -138 146 -21 callsubr
          -146 210 callsubr
          -101 -48 callgsubr
          171 135 -200 vlineto
          73 callsubr
          73 callgsubr
          vhcurveto
          -92 callsubr
          40 vlineto
          endchar
        </CharString>
        <CharString name="dvBH_NA">
          557 635 175 -103 callgsubr
          -376 -186 47 callsubr
          105 298 rmoveto
          -40 458 305 callgsubr
          vlineto
          -73 -42 -29 -61 -7 hvcurveto
          -131 146 140 callgsubr
          -27 4 -29 218 callgsubr
          30 26 -12 callsubr
          -146 210 callsubr
          -101 -48 callgsubr
          171 130 -171 -73 callgsubr
          155 -436 287 callsubr
          hlineto
          endchar
        </CharString>
        <CharString name="dvBH_R">
          13 487 416 rmoveto
          -176 116 140 callgsubr
          -25 201 callsubr
          27 29 -12 callsubr
          -116 210 callsubr
          311 callgsubr
          176 vlineto
          -111 vmoveto
          -297 -309 rlineto
          63 hlineto
          111 117 41 42 57 68 25 33 rlinecurve
          -221 29 193 callsubr
          endchar
        </CharString>
        <CharString name="dvBH_RA">
          191 266 245 193 callsubr
          190 -143 rmoveto
          188 callgsubr
          10 2 3 rlinecurve
          0 -3 -57 -85 vvcurveto
          -36 287 callsubr
          -145 81 callgsubr
          -90 -37 -35 -75 hvcurveto
          311 callgsubr
          145 vlineto
          endchar
        </CharString>
        <CharString name="dvBH_R_YA">
          485 750 316 callsubr
          91 vlineto
          81 53 33 84 hvcurveto
          68 330 callgsubr
          159 hlineto
          -491 -359 -25 callsubr
          46 vlineto
          45 12 25 70 vhcurveto
          82 hlineto
          105 283 rmoveto
          -40 127 vlineto
          69 18 -30 -45 hvcurveto
          -68 vlineto
          -60 -27 -15 -83 vhcurveto
          10 -11 -19 5 -28 hhcurveto
          -106 131 hlineto
          141 callgsubr
          -41 45 41 136 callgsubr
          -131 210 callsubr
          -46 -48 callgsubr
          116 100 vlineto
          18 16 -3 -11 6 hvcurveto
          -94 vlineto
          -11 1 -10 -10 vvcurveto
          -255 -266 rlineto
          63 hlineto
          111 117 28 29 35 40 28 34 rlinecurve
          -73 25 63 -18 75 hhcurveto
          75 38 19 28 19 hvcurveto
          -132 -34 callsubr
        </CharString>
        <CharString name="dvBH_VA">
          417 682 130 144 callsubr
          108 298 199 callsubr
          -93 -51 -48 -71 -2 hvcurveto
          -133 146 -21 callsubr
          -146 210 callsubr
          -101 -48 callgsubr
          171 133 -147 vlineto
          -5 callsubr
          40 vlineto
          endchar
        </CharString>
        <CharString name="dvBH_YA">
          485 750 139 -19 callsubr
        </CharString>
        <CharString name="dvB_BA">
          252 330 346 218 callsubr
          -72 70 callsubr
          -45 -4 rmoveto
          -48 -24 -27 -71 -75 -20 30 45 vhcurveto
          155 vlineto
          190 -144 rlineto
          235 46 216 callsubr
          41 4 27 29 70 hhcurveto
          49 31 -10 -4 9 hvcurveto
          142 195 rmoveto
          -682 -40 540 -113 hlineto
          195 callsubr
          -137 vlineto
          -74 callsubr
          61 38 15 29 21 vhcurveto
          -28 24 41 -16 56 hhcurveto
          49 31 10 4 9 hvcurveto
          -88 42 -47 callsubr
        </CharString>
        <CharString name="dvB_BHA">
          416 232 23 callgsubr
          -252 -40 252 hlineto
          262 -429 47 callsubr
          -399 hmoveto
          -28 callgsubr
          586 453 rmoveto
          -22 callgsubr
          -146 210 callsubr
          -28 vlineto
          -74 callsubr
          53 36 12 22 22 vhcurveto
          -30 18 36 -15 57 217 callsubr
          171 142 -346 -34 callsubr
        </CharString>
        <CharString name="dvB_BH_RA">
          419 238 23 callgsubr
          -258 -40 258 hlineto
          256 -359 193 callsubr
          -399 -30 rmoveto
          -28 callgsubr
          589 453 rmoveto
          81 callgsubr
          -90 -37 -35 -75 hvcurveto
          -58 vlineto
          -74 callsubr
          81 42 28 51 13 vhcurveto
          -14 20 28 -6 38 217 callsubr
          169 callsubr
        </CharString>
        <CharString name="dvB_DA">
          245 95 346 rmoveto
          -28 callgsubr
          235 196 216 callgsubr
          -675 -40 530 -100 -85 239 callgsubr
          -139 vlineto
          -74 callsubr
          63 40 17 31 20 vhcurveto
          -29 26 42 -16 56 hhcurveto
          40 24 3 7 29 hvcurveto
          -25 callgsubr
          endchar
        </CharString>
        <CharString name="dvB_DHA">
          314 95 346 rmoveto
          -28 callgsubr
          484 453 164 callsubr
          -474 -40 320 95 callgsubr
          -16 vlineto
          -74 callsubr
          62 39 16 30 20 vhcurveto
          -39 31 55 -17 65 hhcurveto
          51 35 6 9 31 hvcurveto
          -79 -34 callsubr
        </CharString>
        <CharString name="dvB_DH_VA">
          543 808 -82 callsubr
          -713 -103 rmoveto
          -28 callgsubr
          452 453 -30 callgsubr
          -444 -40 320 hlineto
          300 callgsubr
          -53 -42 callgsubr
          -36 vlineto
          -74 callsubr
          72 41 22 40 17 vhcurveto
          -32 32 51 -14 59 hhcurveto
          41 55 9 10 39 hvcurveto
          129 callgsubr
        </CharString>
        <CharString name="dvB_JA">
          450 95 382 6 callgsubr
        </CharString>
        <CharString name="dvB_JHA">
          518 783 309 rmoveto
          -274 hlineto
          193 callgsubr
          hlineto
          -688 -258 rmoveto
          -28 callgsubr
          833 453 rmoveto
          -948 -40 620 -99 -88 312 callsubr
          -30 7 -25 15 -19 vhcurveto
          -109 -61 hlineto
          -190 145 rlineto
          42 2 21 28 72 hhcurveto
          30 27 -5 0 hvcurveto
          42 vlineto
          0 -28 5 -29 -95 -45 -42 -75 vhcurveto
          279 callgsubr
          45 -42 95 100 40 42 75 vhcurveto
          76 174 0 7 vlineto
          128 callgsubr
        </CharString>
        <CharString name="dvB_J_YA">
          726 991 246 callgsubr
          107 vlineto
          81 53 33 84 hvcurveto
          52 173 callgsubr
          -896 -222 rmoveto
          182 -230 rlineto
          -23 -12 -25 -13 -50 hhcurveto
          -75 -20 30 45 hvcurveto
          190 12 rmoveto
          -179 226 rlineto
          20 13 25 14 46 hhcurveto
          72 23 -34 -42 hvcurveto
          851 257 rmoveto
          -1156 -40 831 hlineto
          -88 callsubr
          -52 296 callsubr
          75 -3 -43 18 -65 hhcurveto
          -217 -2 callsubr
          45 hlineto
          57 26 -5 -50 hvcurveto
          -147 vlineto
          -91 callsubr
        </CharString>
        <CharString name="dvB_JxA">
          450 296 10 rmoveto
          -43 callgsubr
          -103 callsubr
          hvcurveto
          -201 372 6 callgsubr
        </CharString>
        <CharString name="dvB_LA">
          450 95 346 rmoveto
          -28 callgsubr
          765 453 rmoveto
          -880 -40 735 -144 hlineto
          19 callsubr
          -106 vlineto
          -74 callsubr
          45 33 8 16 22 vhcurveto
          -61 14 47 -37 89 hhcurveto
          73 callgsubr
          hvcurveto
          -94 callsubr
        </CharString>
        <CharString name="dvB_L_YA">
          741 1006 -105 callgsubr
          -911 -258 rmoveto
          -28 callgsubr
          1056 453 rmoveto
          -1171 -40 846 121 callgsubr
          -68 -3 vhcurveto
          59 -9 -38 36 -76 hhcurveto
          -47 -30 -24 callgsubr
          -90 -40 -47 -75 hvcurveto
          -106 vlineto
          -74 callsubr
          45 33 8 16 22 vhcurveto
          -61 14 47 -37 89 hhcurveto
          96 callsubr
          -101 vlineto
          -91 callsubr
        </CharString>
        <CharString name="dvB_NA">
          408 486 175 -103 callgsubr
          -391 -15 rmoveto
          -28 callgsubr
          190 57 216 callsubr
          42 2 21 28 72 hhcurveto
          71 24 -26 -49 hvcurveto
          533 256 rmoveto
          -838 -40 693 305 callgsubr
          hlineto
          -40 -30 -9 -17 -21 hvcurveto
          36 -19 -40 19 -68 hhcurveto
          22 callsubr
          279 callgsubr
          45 -42 95 53 36 12 22 23 vhcurveto
          -30 19 36 -15 51 219 callgsubr
          -54 callsubr
        </CharString>
        <CharString name="dvB_R">
          -176 100 348 rmoveto
          190 -138 rlineto
          -10 vlineto
          -48 -24 -27 -71 -75 -20 30 45 vhcurveto
          190 56 rmoveto
          -190 138 rlineto
          42 2 22 27 71 hhcurveto
          71 24 -26 -49 hvcurveto
          -235 -188 rmoveto
          -75 43 -45 110 3 vhcurveto
          -160 -146 rlineto
          65 hlineto
          156 145 rlineto
          46 42 20 20 56 vvcurveto
          188 337 callsubr
          -75 256 rmoveto
          -40 375 40 vlineto
          endchar
        </CharString>
        <CharString name="dvB_RA">
          22 100 164 callgsubr
          -310 195 rmoveto
          -40 310 -113 vlineto
          195 callsubr
          -164 230 callgsubr
          40 hlineto
          endchar
        </CharString>
        <CharString name="dvB_SA">
          420 685 271 callgsubr
          148 hlineto
          -590 -258 rmoveto
          -28 callgsubr
          735 453 rmoveto
          -850 -40 512 hlineto
          -53 callgsubr
          137 -45 -202 vlineto
          -190 145 rlineto
          42 2 21 28 72 hhcurveto
          17 16 -3 0 hvcurveto
          42 vlineto
          0 -16 3 -17 -95 -45 -42 -75 vhcurveto
          279 callgsubr
          45 -42 95 44 32 8 15 22 vhcurveto
          -70 15 62 -32 82 hhcurveto
          57 44 10 6 22 hvcurveto
          -61 callsubr
        </CharString>
        <CharString name="dvB_SHA">
          412 230 23 callgsubr
          -250 -40 250 hlineto
          -135 -258 rmoveto
          -28 callgsubr
          238 299 225 callsubr
          86 -45 -156 vlineto
          -74 callsubr
          44 33 8 16 22 vhcurveto
          -67 17 64 -36 82 hhcurveto
          184 callsubr
          hvcurveto
          -43 callsubr
        </CharString>
        <CharString name="dvB_TA">
          265 95 346 rmoveto
          -28 callgsubr
          580 453 rmoveto
          -695 -40 550 235 callsubr
          260 callsubr
          -135 vlineto
          -74 callsubr
          42 32 7 15 22 vhcurveto
          -59 7 40 -38 74 hhcurveto
          -54 callgsubr
          vlineto
          endchar
        </CharString>
        <CharString name="dvB_VA">
          265 530 -82 callsubr
          -245 -258 rmoveto
          -48 -24 -27 -71 -75 -20 30 45 vhcurveto
          155 vlineto
          190 -144 rlineto
          390 442 rmoveto
          -695 -40 550 -113 hlineto
          -7 callsubr
          -133 vlineto
          -74 callsubr
          61 39 16 29 21 vhcurveto
          -29 24 40 -16 56 118 callsubr
        </CharString>
        <CharString name="dvB_YA">
          326 591 -105 callgsubr
          -496 -258 rmoveto
          -28 callgsubr
          641 453 rmoveto
          -756 -40 431 246 callsubr
          -133 hlineto
          -74 callsubr
          73 41 22 41 17 vhcurveto
          -41 35 58 -11 59 -9 callgsubr
        </CharString>
        <CharString name="dvC">
          310 callgsubr
          12 -480 rmoveto
          -11 -33 -45 -7 -35 17 callsubr
          38 50 9 9 25 vhcurveto
          endchar
        </CharString>
        <CharString name="dvCA">
          65 140 344 rmoveto
          18 callsubr
          -157 167 callgsubr
          40 -495 -40 350 -483 vlineto
          163 callgsubr
          endchar
        </CharString>
        <CharString name="dvCH">
          103 315 493 rmoveto
          283 callgsubr
          -209 221 callgsubr
          132 vlineto
          57 29 18 48 vhcurveto
          320 40 -533 -40 123 hlineto
          -20 -10 -12 -20 -45 vvcurveto
          -132 vlineto
          58 callgsubr
          338 callsubr
          -24 57 -95 vhcurveto
          endchar
        </CharString>
        <CharString name="dvCHA">
          104 71 33 callsubr
          endchar
        </CharString>
        <CharString name="dvCH_RA">
          104 389 167 -57 callgsubr
          125 228 rmoveto
          40 -534 -40 101 vlineto
          112 callgsubr
          60 -22 40 -56 12 338 callgsubr
        </CharString>
        <CharString name="dvCH_R_YA">
          591 856 5 callgsubr
          7 253 callsubr
          -249 110 500 hlineto
          -467 -437 -57 callgsubr
          612 268 rmoveto
          -1021 -40 101 hlineto
          112 callgsubr
          31 -6 26 -13 19 vhcurveto
          190 hlineto
          66 13 -30 -45 hvcurveto
          -7 -26 callsubr
        </CharString>
        <CharString name="dvCH_YA">
          570 835 5 callgsubr
          7 253 callsubr
          -180 hlineto
          18 -19 -28 11 -42 hhcurveto
          283 callgsubr
          -239 221 callgsubr
          132 vlineto
          57 29 18 48 vhcurveto
          642 hlineto
          181 callsubr
          -1000 -40 123 hlineto
          -20 -10 -12 -20 -45 vvcurveto
          -132 vlineto
          58 callgsubr
          239 vlineto
          16 -2 16 -4 14 vhcurveto
          156 hlineto
          66 13 -30 -45 hvcurveto
          -7 -26 callsubr
        </CharString>
        <CharString name="dvC_CA">
          310 720 23 callgsubr
          -740 -40 595 -483 hlineto
          163 callgsubr
          157 vlineto
          229 callgsubr
          -219 -40 53 hlineto
          0 -10 -32 -63 vvcurveto
          -157 vlineto
          -25 5 -22 9 -18 vhcurveto
          -9 -31 -38 -7 -44 hhcurveto
          -73 -28 24 57 hvcurveto
          157 vlineto
          225 callgsubr
          86 40 -224 -40 93 hlineto
          0 -10 -32 -63 vvcurveto
          -157 vlineto
          -76 47 -47 99 50 62 13 13 30 vhcurveto
          -17 23 32 -9 44 hhcurveto
          38 30 6 9 25 hvcurveto
          -79 -58 callsubr
        </CharString>
        <CharString name="dvC_CHA">
          379 664 167 -57 callgsubr
          125 228 rmoveto
          40 -809 -40 376 255 callsubr
          -17 1 -15 3 -13 vhcurveto
          -9 -30 -38 -7 -39 17 callsubr
          44 53 12 9 25 vhcurveto
          -41 26 52 -17 88 hhcurveto
          132 52 37 103 hvcurveto
          338 callsubr
          -22 40 -56 12 338 callgsubr
        </CharString>
        <CharString name="dvC_CH_VA">
          379 664 167 -57 callgsubr
          -52 -524 rmoveto
          -9 -32 -29 -3 -39 hhcurveto
          -75 -25 30 45 hvcurveto
          37 vlineto
          45 22 30 75 vhcurveto
          0 16 vlineto
          34 29 2 6 24 hvcurveto
          177 569 rmoveto
          40 -809 -40 376 255 callsubr
          -17 1 -15 3 -13 vhcurveto
          -9 -30 -38 -7 -39 17 callsubr
          44 53 12 9 25 vhcurveto
          11 -18 17 -14 23 -9 rrcurveto
          -28 -20 -14 -31 -41 vvcurveto
          -37 vlineto
          -75 49 -41 95 39 33 4 8 28 vhcurveto
          -66 44 306 vlineto
          37 22 16 37 57 vvcurveto
          338 callsubr
          -22 40 -56 12 338 callgsubr
        </CharString>
        <CharString name="dvC_MA">
          461 726 147 callsubr
          -429 rmoveto
          -99 callgsubr
          332 258 rmoveto
          -891 -40 559 -178 210 callgsubr
          -141 vlineto
          -21 3 -18 6 -15 vhcurveto
          -8 -30 -38 -7 -34 17 callsubr
          44 58 13 9 26 vhcurveto
          -15 21 30 -8 41 78 callgsubr
        </CharString>
        <CharString name="dvC_NA">
          453 531 175 -103 callgsubr
          332 283 rmoveto
          -893 -40 748 309 callsubr
          -20 3 -18 6 -14 vhcurveto
          -10 -34 -40 -7 -38 17 callsubr
          49 55 13 12 33 vhcurveto
          -17 21 30 -9 38 219 callgsubr
          -54 callsubr
        </CharString>
        <CharString name="dvC_R">
          310 callgsubr
          -198 -260 rmoveto
          18 callsubr
          -157 vlineto
          -76 43 -47 110 18 16 1 2 14 vhcurveto
          -145 -126 313 callsubr
          40 vlineto
          -9 -33 -36 -5 -48 hhcurveto
          -85 -24 29 52 hvcurveto
          endchar
        </CharString>
        <CharString name="dvC_RA">
          65 -20 23 callgsubr
          -40 350 -449 vlineto
          163 callgsubr
          123 48 callgsubr
          -123 262 callgsubr
          vhcurveto
          16 hlineto
          -164 -157 rlineto
          61 hlineto
          179 172 rlineto
          1 -113 287 callsubr
          hlineto
          endchar
        </CharString>
        <CharString name="dvC_YA">
          371 636 -105 callgsubr
          145 40 rmoveto
          -801 -40 476 155 callsubr
          -47 11 -35 18 -25 vhcurveto
          -10 -33 -44 -10 -45 297 callsubr
          137 48 callgsubr
          -137 262 callgsubr
          70 59 22 9 26 vhcurveto
          -23 34 46 -7 46 -9 callgsubr
        </CharString>
        <CharString name="dvCandrabindu">
          -390 -136 846 rmoveto
          -19 9 -14 24 125 callsubr
          vhcurveto
          138 -27 rmoveto
          86 callsubr
          1 vlineto
          endchar
        </CharString>
        <CharString name="dvD">
          7 437 93 callsubr
          -338 405 rmoveto
          -38 callsubr
          184 vlineto
          235 callgsubr
          -437 -40 292 -100 -85 239 callgsubr
          endchar
        </CharString>
        <CharString name="dvDA">
          7 47 203 rmoveto
          -38 callsubr
          184 vlineto
          235 callgsubr
          -437 -40 292 -100 -85 239 callgsubr
          endchar
        </CharString>
        <CharString name="dvDA_mvR">
          7 317 196 callgsubr
          -437 -40 292 -100 -85 104 callsubr
          -114 vlineto
          -79 57 -47 95 40 24 3 7 29 vhcurveto
          -58 vlineto
          1 -9 -9 0 -7 hhcurveto
          -75 -52 -30 -95 -95 57 -30 75 26 14 1 4 27 hvcurveto
          45 vlineto
          -3 -23 -22 -2 -22 hhcurveto
          -45 -45 5 75 75 40 5 45 14 33 -2 -3 20 hvcurveto
          248 12 callgsubr
          114 136 callsubr
        </CharString>
        <CharString name="dvDD">
          17 320 93 callsubr
          84 361 -14 callgsubr
        </CharString>
        <CharString name="dvDDA">
          17 352 159 -14 callgsubr
        </CharString>
        <CharString name="dvDDH">
          10 326 93 callsubr
          -74 706 rmoveto
          22 callsubr
          -265 286 callsubr
          -16 callgsubr
          115 287 callgsubr
          hlineto
          endchar
        </CharString>
        <CharString name="dvDDHA">
          10 200 504 rmoveto
          22 callsubr
          -265 286 callsubr
          -16 callgsubr
          115 287 callgsubr
          hlineto
          endchar
        </CharString>
        <CharString name="dvDDH_DDHA">
          10 315 462 rmoveto
          142 105 40 -440 119 callsubr
          -168 vlineto
          -47 16 -36 34 -21 vhcurveto
          -34 -20 -16 -33 -45 130 callgsubr
          5 hlineto
          100 45 49 78 hvcurveto
          16 170 callsubr
          -16 vlineto
          -48 -20 -37 -80 -80 -20 37 48 vhcurveto
          168 136 callsubr
        </CharString>
        <CharString name="dvDDH_R">
          10 188 200 callsubr
          85 621 45 callsubr
        </CharString>
        <CharString name="dvDDH_RA">
          10 315 462 45 callsubr
        </CharString>
        <CharString name="dvDDH_YA">
          476 741 5 callgsubr
          17 253 callsubr
          -175 100 426 hlineto
          181 callsubr
          -906 -40 290 -100 -70 239 callgsubr
          -265 286 callsubr
          -16 callgsubr
          290 hlineto
          66 13 -30 -45 hvcurveto
          -17 -26 callsubr
        </CharString>
        <CharString name="dvDDHxA">
          10 200 504 rmoveto
          124 callgsubr
          115 287 callgsubr
          hlineto
          -100 -636 rmoveto
          -19 9 -14 24 125 callsubr
          vhcurveto
          endchar
        </CharString>
        <CharString name="dvDD_DDA">
          22 328 463 61 callgsubr
          13 -3 15 -2 15 -3 rrcurveto
          -18 -17 -11 -25 -34 vvcurveto
          -75 45 -31 85 vhcurveto
          42 hlineto
          65 20 -19 -45 hvcurveto
          -18 vlineto
          -55 -22 -19 -85 -40 -59 7 11 -51 vhcurveto
          -42 vlineto
          -10 44 53 -8 53 hhcurveto
          255 callgsubr
          0 20 vlineto
          281 callgsubr
          hvcurveto
          4 vlineto
          45 20 18 65 vhcurveto
          endchar
        </CharString>
        <CharString name="dvDD_DDHA">
          22 328 463 61 callgsubr
          16 -3 18 -3 19 -3 rrcurveto
          -23 -20 -13 -28 -35 130 callgsubr
          0 7 vlineto
          255 callgsubr
          endchar
        </CharString>
        <CharString name="dvDD_R">
          17 181 200 callsubr
          100 622 42 callgsubr
        </CharString>
        <CharString name="dvDD_RA">
          17 323 463 42 callgsubr
        </CharString>
        <CharString name="dvDD_VA">
          22 108 17 rmoveto
          45 22 30 75 33 28 3 7 22 vhcurveto
          -187 vlineto
          -6 -23 -27 -4 -40 hhcurveto
          -65 -25 25 45 hvcurveto
          220 488 61 callgsubr
          16 -3 18 -3 19 -3 rrcurveto
          -21 -20 -10 -28 -35 245 callsubr
          43 317 vlineto
          18 19 8 26 36 vvcurveto
          199 callgsubr
          hvcurveto
          4 vlineto
          45 20 18 65 vhcurveto
          endchar
        </CharString>
        <CharString name="dvDD_YA">
          481 746 5 callgsubr
          18 253 callsubr
          -172 99 423 hlineto
          181 callsubr
          -911 -40 298 -99 -83 hlineto
          -95 -45 -40 -75 hvcurveto
          28 callsubr
          300 hlineto
          66 13 -30 -45 hvcurveto
          -18 -26 callsubr
        </CharString>
        <CharString name="dvDDxA">
          17 170 -132 rmoveto
          -19 9 -14 24 125 callsubr
          vhcurveto
          182 291 -14 callgsubr
        </CharString>
        <CharString name="dvDH">
          -92 383 127 rmoveto
          -8 -28 -57 -13 63 callsubr
          79 40 -229 -40 105 hlineto
          97 callgsubr
          51 54 12 9 31 vhcurveto
          endchar
        </CharString>
        <CharString name="dvDHA">
          99 85 604 rmoveto
          97 callgsubr
          51 35 6 9 31 329 callsubr
          -145 29 callgsubr
          -259 -40 hlineto
          endchar
        </CharString>
        <CharString name="dvDH_MA">
          479 744 147 callsubr
          -429 rmoveto
          -99 callgsubr
          -224 258 rmoveto
          -40 224 -178 210 callsubr
          -141 vlineto
          -20 3 -17 5 -15 vhcurveto
          -7 -30 -41 -7 -38 hhcurveto
          -82 -50 25 75 hvcurveto
          55 108 callgsubr
          79 40 -229 -40 105 95 callgsubr
          -55 vlineto
          -102 77 -40 100 50 53 12 9 32 vhcurveto
          -17 20 31 -8 42 217 callsubr
          211 142 -386 -34 callsubr
        </CharString>
        <CharString name="dvDH_NA">
          471 549 175 -103 callgsubr
          -231 283 rmoveto
          -40 418 305 callgsubr
          vlineto
          176 callsubr
          -191 vlineto
          -21 3 -18 7 -14 vhcurveto
          -8 -31 -43 -8 -37 -20 callgsubr
          79 40 -229 -40 105 hlineto
          97 callgsubr
          50 56 14 9 32 vhcurveto
          -16 20 29 -8 37 219 callgsubr
          -48 callsubr
          40 hlineto
          endchar
        </CharString>
        <CharString name="dvDH_N_YA">
          769 1034 15 callsubr
          181 53 callsubr
          630 293 rmoveto
          -831 -40 506 121 callgsubr
          -66 -3 vhcurveto
          63 -3 -52 22 -80 hhcurveto
          -167 hlineto
          176 callsubr
          -181 vlineto
          -22 4 -18 6 -15 vhcurveto
          -8 -32 -42 -6 -37 -20 callgsubr
          79 40 -229 -40 105 hlineto
          97 callgsubr
          50 59 11 10 31 vhcurveto
          -15 21 28 -7 35 219 callgsubr
          176 282 callgsubr
          55 43 -9 -41 hvcurveto
          -123 vlineto
          -91 callsubr
        </CharString>
        <CharString name="dvDH_R">
          -92 115 264 291 callgsubr
          73 163 callsubr
          -229 -40 105 95 callgsubr
          -38 vlineto
          -105 74 -39 108 20 20 1 3 20 vhcurveto
          -149 -130 313 callsubr
          38 vlineto
          -4 -44 -24 -5 -54 hhcurveto
          -90 -51 25 77 hvcurveto
          endchar
        </CharString>
        <CharString name="dvDH_RA">
          99 364 23 callgsubr
          -503 318 callsubr
          31 -51 callsubr
          78 220 callgsubr
          109 40 -258 -40 104 hlineto
          131 callgsubr
        </CharString>
        <CharString name="dvDH_VA">
          328 593 -82 callsubr
          -261 195 -30 callgsubr
          -229 -40 105 hlineto
          300 callgsubr
          -53 vlineto
          -45 10 -36 48 -16 vhcurveto
          89 callsubr
        </CharString>
        <CharString name="dvDH_YA">
          389 654 -105 callgsubr
          -322 40 21 callgsubr
          -229 -40 105 hlineto
          300 callgsubr
          -53 vlineto
          -45 10 -36 48 -16 vhcurveto
          89 callgsubr
        </CharString>
        <CharString name="dvD_BA">
          17 300 28 rmoveto
          -9 -1 -8 -1 -8 vhcurveto
          -167 127 rlineto
          11 15 22 6 32 hhcurveto
          32 52 6 4 16 hvcurveto
          -197 -90 rmoveto
          12 2 11 3 10 vhcurveto
          173 -131 rlineto
          -15 -15 -25 -9 -39 hhcurveto
          -78 -21 35 48 hvcurveto
          222 434 rmoveto
          142 102 40 -447 -40 300 -100 -85 104 callsubr
          -123 vlineto
          -45 18 -33 35 -19 vhcurveto
          -34 -21 -16 -35 -44 vvcurveto
          -39 vlineto
          -78 46 -47 98 98 42 47 78 vhcurveto
          308 -42 -137 vlineto
          -4 -23 -46 -6 -31 hhcurveto
          -75 -25 30 45 hvcurveto
          123 136 callsubr
        </CharString>
        <CharString name="dvD_BHA">
          89 217 -24 rmoveto
          13 -18 4 -25 -35 -26 -38 -27 -22 13 -12 18 -17 22 rcurveline
          -13 19 -4 24 35 26 46 33 rcurveline
          223 427 rmoveto
          142 102 40 -519 -40 372 -100 -85 104 callsubr
          -94 vlineto
          -79 57 -47 95 vhcurveto
          17 hlineto
          -110 -80 -53 74 -29 41 -45 3 -47 -35 rlinecurve
          -49 -34 -11 -44 29 -41 17 -21 rcurveline
          32 23 -16 23 -12 17 -2 22 34 25 rlinecurve
          33 24 19 -8 14 -18 53 -73 rcurveline
          -46 -34 -50 -37 -9 -45 29 -39 rlinecurve
          17 -23 29 -41 46 -7 52 36 rlinecurve
          50 38 7 46 -28 41 -43 59 rcurveline
          164 118 rlineto
          1 -117 42 258 -42 -99 hlineto
          -7 -32 -21 -3 -40 hhcurveto
          -75 -32 33 51 hvcurveto
          94 136 callsubr
        </CharString>
        <CharString name="dvD_B_RA">
          17 301 115 rmoveto
          -10 -1 -10 -2 -9 vhcurveto
          -165 105 rlineto
          10 15 22 6 30 hhcurveto
          38 46 9 6 17 hvcurveto
          -198 -95 rmoveto
          12 2 12 4 10 vhcurveto
          170 -107 rlineto
          -14 -15 -24 -8 -38 hhcurveto
          -78 -21 35 48 hvcurveto
          222 347 rmoveto
          142 102 40 -447 -40 300 -100 -85 104 callsubr
          -63 vlineto
          -45 18 -33 35 -19 vhcurveto
          -33 -21 -16 -35 -44 vvcurveto
          -12 vlineto
          -78 45 -46 98 vhcurveto
          9 hlineto
          -114 -104 rlineto
          65 hlineto
          139 129 rlineto
          -75 41 405 -41 -82 vlineto
          -7 -20 -36 -8 -45 hhcurveto
          -75 -25 30 45 hvcurveto
          63 136 callsubr
        </CharString>
        <CharString name="dvD_DA">
          15 325 196 callgsubr
          -445 -40 300 -100 -85 104 callsubr
          -13 vlineto
          -44 15 -33 32 -19 vhcurveto
          -32 -19 -15 -33 -44 vvcurveto
          -55 vlineto
          -75 56 -42 95 39 25 6 8 30 vhcurveto
          -91 42 228 -42 -95 vlineto
          -7 -25 -30 -7 -39 hhcurveto
          -75 -31 30 45 hvcurveto
          55 -32 callgsubr
          85 42 -85 hlineto
          -75 -20 30 45 hvcurveto
          13 136 callsubr
        </CharString>
        <CharString name="dvD_DHA">
          146 456 196 callgsubr
          -576 -40 431 -100 -85 104 callsubr
          -184 vlineto
          283 callsubr
          9 vlineto
          262 callsubr
          14 38 -14 hlineto
          99 callgsubr
        </CharString>
        <CharString name="dvD_GA">
          15 325 196 callgsubr
          -445 -40 300 -100 -85 104 callsubr
          -144 vlineto
          -62 35 -43 62 -15 vhcurveto
          -81 266 callgsubr
          75 11 vlineto
          40 24 3 7 29 hvcurveto
          -287 42 448 -42 -119 -32 callsubr
          144 136 callsubr
        </CharString>
        <CharString name="dvD_GHA">
          146 47 63 rmoveto
          262 callsubr
          68 -96 hlineto
          283 callsubr
          409 408 331 callgsubr
          -576 -40 431 -100 -85 104 callsubr
          -50 -68 vlineto
          99 callgsubr
        </CharString>
        <CharString name="dvD_G_RA">
          17 325 196 callgsubr
          -445 -40 300 -100 -85 104 callsubr
          -105 vlineto
          -62 35 -43 62 -15 vhcurveto
          -60 266 callgsubr
          54 11 vlineto
          40 24 3 7 29 hvcurveto
          -121 vlineto
          -202 -205 rlineto
          59 hlineto
          40 41 rlineto
          75 75 29 36 0 vvcurveto
          -1 vlineto
          0 -1 -34 -28 vvcurveto
          -49 42 458 -42 -130 -32 callsubr
          105 136 callsubr
        </CharString>
        <CharString name="dvD_MA">
          224 489 136 rmoveto
          -154 197 -43 -97 hlineto
          -4 -16 -38 -8 -43 hhcurveto
          -75 -28 30 45 hvcurveto
          88 -32 callgsubr
          130 142 172 hlineto
          181 callsubr
          -654 -40 292 -100 -85 239 callgsubr
          -88 vlineto
          -75 53 -42 95 45 32 8 6 20 vhcurveto
          -145 43 45 154 -96 -58 callsubr
        </CharString>
        <CharString name="dvD_NA">
          7 317 196 callgsubr
          -437 -40 292 -100 -85 104 callsubr
          -164 vlineto
          -79 57 -47 95 vhcurveto
          7 hlineto
          -100 -69 -61 -42 -1 -44 27 -34 rlinecurve
          19 -24 40 -5 0 vvcurveto
          33 26 rlineto
          0 -37 7 -15 18 vhcurveto
          -19 25 9 21 35 24 156 106 rcurveline
          -116 42 268 -42 -109 -32 callsubr
          164 136 callsubr
        </CharString>
        <CharString name="dvD_R">
          5 332 -10 rmoveto
          166 callsubr
          154 vlineto
          235 callgsubr
          -437 -40 292 -100 -85 239 callgsubr
          -154 vlineto
          -79 57 -47 95 vhcurveto
          9 8 0 8 hhcurveto
          -171 -177 rlineto
          59 hlineto
          180 187 rlineto
          -127 vlineto
          45 -53 rmoveto
          -42 hlineto
          320 callsubr
          endchar
        </CharString>
        <CharString name="dvD_RA">
          5 317 196 callgsubr
          -437 -40 292 -100 -85 104 callsubr
          -154 74 callsubr
          154 136 callsubr
        </CharString>
        <CharString name="dvD_VA">
          17 300 231 callgsubr
          25 301 rmoveto
          142 102 40 -447 -40 300 -100 -85 104 callsubr
          135 callsubr
        </CharString>
        <CharString name="dvD_YA">
          84 494 23 callgsubr
          -514 -40 193 -80 hlineto
          -59 -53 -25 -75 hvcurveto
          -31 -42 callgsubr
          -15 vlineto
          -102 70 -29 99 50 41 8 7 34 vhcurveto
          -70 -82 callgsubr
          vlineto
          -145 hmoveto
          -493 vlineto
          -7 -28 -48 -8 -48 hhcurveto
          -80 -45 15 75 hvcurveto
          15 269 callgsubr
          30 42 -30 hlineto
          -75 1 -16 29 45 vvcurveto
          27 vlineto
          56 33 9 54 vhcurveto
          25 119 hlineto
          endchar
        </CharString>
        <CharString name="dvE">
          33 346 57 rmoveto
          -8 -23 -48 -12 -49 hhcurveto
          -80 -26 31 50 hvcurveto
          486 185 callgsubr
          -485 vlineto
          -85 53 -39 98 51 47 10 10 22 vhcurveto
          endchar
        </CharString>
        <CharString name="dvEcandra">
          33 324 832 rmoveto
          86 callsubr
          1 vlineto
          -25 -775 rmoveto
          -8 -23 -49 -12 -49 hhcurveto
          -72 -28 30 45 hvcurveto
          492 185 callgsubr
          -492 vlineto
          336 callsubr
          endchar
        </CharString>
        <CharString name="dvEight">
          34 callsubr
        </CharString>
        <CharString name="dvEyelash">
          -151 -20 604 rmoveto
          354 40 -354 hlineto
          354 -321 rmoveto
          -157 hlineto
          -75 -40 -5 55 hvcurveto
          -42 -1 hlineto
          -84 62 -5 95 vhcurveto
          157 hlineto
          endchar
        </CharString>
        <CharString name="dvEyelash_HA">
          222 534 224 callgsubr
          98 40 -652 -40 509 -100 -98 vlineto
          224 callsubr
          -13 -78 vlineto
          308 callgsubr
          83 hlineto
          8 -25 16 -17 25 -11 rrcurveto
          -38 -16 -19 -31 -46 vvcurveto
          -65 vlineto
          -79 49 -51 114 42 48 4 7 40 vhcurveto
          41 vlineto
          -8 -48 -39 -2 -43 hhcurveto
          -94 -24 39 49 177 callgsubr
          endchar
        </CharString>
        <CharString name="dvEyelash_YA">
          281 546 246 callgsubr
          66 vlineto
          81 53 33 84 hvcurveto
          93 173 callgsubr
          -566 40 rmoveto
          -40 386 vlineto
          -88 callsubr
          -93 21 callsubr
          -74 hlineto
          308 callgsubr
          54 -68 hlineto
          92 callsubr
          vlineto
          endchar
        </CharString>
        <CharString name="dvFive">
          102 callgsubr
        </CharString>
        <CharString name="dvFour">
          186 callsubr
        </CharString>
        <CharString name="dvG">
          -138 181 604 rmoveto
          91 40 -292 -40 254 callsubr
          hlineto
          -95 callgsubr
          endchar
        </CharString>
        <CharString name="dvGA">
          86 496 23 callgsubr
          -516 -40 254 callsubr
          hlineto
          -95 callgsubr
          289 247 callsubr
        </CharString>
        <CharString name="dvGH">
          -106 384 125 rmoveto
          -5 -17 -68 -14 329 callgsubr
          51 -51 callsubr
          78 220 callgsubr
          236 40 -385 133 callgsubr
          50 62 13 6 23 vhcurveto
          endchar
        </CharString>
        <CharString name="dvGHA">
          99 509 23 callgsubr
          -529 133 callgsubr
          50 42 9 6 23 vhcurveto
          -80 -82 callgsubr
          vlineto
          -145 hmoveto
          -483 318 callsubr
          51 -51 callsubr
          78 220 callgsubr
          endchar
        </CharString>
        <CharString name="dvGH_MA">
          479 744 115 callgsubr
          -141 vlineto
          -22 3 -19 7 -15 vhcurveto
          -6 -31 -44 -7 -34 237 callsubr
          51 -51 callsubr
          78 220 callgsubr
          428 161 callsubr
          332 258 rmoveto
          -909 133 callgsubr
          48 63 13 6 26 vhcurveto
          -14 21 29 -7 39 78 callgsubr
        </CharString>
        <CharString name="dvGH_NA">
          471 736 139 callsubr
          -191 vlineto
          -22 4 -19 7 -16 vhcurveto
          -5 -31 -45 -7 -34 237 callsubr
          51 -51 callsubr
          78 220 callgsubr
          607 hlineto
          -187 -429 -103 callgsubr
          332 283 rmoveto
          -901 133 callgsubr
          49 67 13 6 24 vhcurveto
          -14 20 28 -7 34 219 callgsubr
          -54 callsubr
        </CharString>
        <CharString name="dvGH_R">
          -102 383 604 rmoveto
          40 -403 -40 104 vlineto
          288 callgsubr
          -78 -42 callgsubr
          -33 vlineto
          -105 74 -39 108 20 20 1 3 20 vhcurveto
          -149 -130 313 callsubr
          38 vlineto
          -4 -44 -24 -5 -54 hhcurveto
          -90 -51 25 77 hvcurveto
          33 -51 callsubr
          78 220 callgsubr
          endchar
        </CharString>
        <CharString name="dvGH_RA">
          99 115 259 291 callgsubr
          78 220 callgsubr
          235 -463 hlineto
          274 callgsubr
          -135 416 rmoveto
          -40 104 vlineto
          131 callgsubr
        </CharString>
        <CharString name="dvGH_YA">
          389 654 -105 callgsubr
          -539 -325 291 callgsubr
          58 220 callgsubr
          345 155 callsubr
          -44 9 -33 16 -24 vhcurveto
          -8 -37 -50 -8 -37 237 callsubr
          684 406 rmoveto
          -819 -40 104 hlineto
          288 callgsubr
          -58 -42 callgsubr
          -41 278 callgsubr
          49 69 12 11 37 vhcurveto
          -25 35 48 -8 49 -9 callgsubr
        </CharString>
        <CharString name="dvG_BA">
          278 356 346 -45 callgsubr
          142 195 rmoveto
          -708 -40 254 callsubr
          hlineto
          -95 callgsubr
          289 365 -113 vlineto
          195 callsubr
          -190 vlineto
          90 callgsubr
        </CharString>
        <CharString name="dvG_BHA">
          442 181 604 rmoveto
          78 40 -279 -40 254 callsubr
          hlineto
          -95 callgsubr
          339 -140 47 callsubr
          40 vmoveto
          210 callgsubr
          -101 -48 callgsubr
          171 142 -346 287 callsubr
          -145 -22 callgsubr
          endchar
        </CharString>
        <CharString name="dvG_BH_YA">
          726 -20 604 rmoveto
          254 callsubr
          hlineto
          -95 callgsubr
          289 71 40 -272 vlineto
          1011 -505 -19 callsubr
        </CharString>
        <CharString name="dvG_DA">
          267 577 196 callgsubr
          -697 -40 254 callsubr
          vlineto
          -95 callgsubr
          289 351 -100 -85 104 callsubr
          -184 221 callsubr
          184 136 callsubr
        </CharString>
        <CharString name="dvG_DHA">
          360 625 644 164 callsubr
          -520 -40 254 callsubr
          hlineto
          -95 callgsubr
          289 165 vlineto
          0 -9 -25 -50 vvcurveto
          -73 vlineto
          -45 10 -36 48 -16 vhcurveto
          231 callsubr
        </CharString>
        <CharString name="dvG_DH_VA">
          589 854 -82 callsubr
          -261 195 -30 callgsubr
          -490 -40 254 callsubr
          hlineto
          -95 callgsubr
          289 165 vlineto
          300 callgsubr
          -53 vlineto
          -45 10 -36 48 -16 vhcurveto
          89 callsubr
        </CharString>
        <CharString name="dvG_DH_YA">
          650 915 -105 callgsubr
          -322 40 21 callgsubr
          -490 -40 254 callsubr
          hlineto
          -95 callgsubr
          289 165 vlineto
          300 callgsubr
          -53 vlineto
          -45 10 -36 48 -16 vhcurveto
          89 callgsubr
        </CharString>
        <CharString name="dvG_GA">
          316 726 23 callgsubr
          -746 -40 254 callsubr
          hlineto
          -95 callgsubr
          289 185 -289 vlineto
          -95 callgsubr
          289 247 callsubr
        </CharString>
        <CharString name="dvG_GHA">
          360 625 121 rmoveto
          274 callgsubr
          51 -51 callsubr
          78 220 callgsubr
          235 hlineto
          181 callsubr
          -790 -40 254 callsubr
          hlineto
          -95 callgsubr
          289 164 vlineto
          288 callgsubr
          -78 -42 callgsubr
          -51 278 callgsubr
          50 42 9 6 23 vhcurveto
          -80 -58 callsubr
        </CharString>
        <CharString name="dvG_JA">
          401 811 23 callgsubr
          -831 -40 254 callsubr
          hlineto
          -95 callgsubr
          289 485 -125 -316 -40 113 vlineto
          -102 callgsubr
          158 -439 63 callgsubr
        </CharString>
        <CharString name="dvG_LA">
          481 891 23 callgsubr
          -911 -40 254 callsubr
          hlineto
          -95 callgsubr
          289 565 -144 vlineto
          11 -27 -21 5 -32 14 callgsubr
          28 28 -5 -11 24 vhcurveto
          -418 45 604 100 vlineto
          endchar
        </CharString>
        <CharString name="dvG_MA">
          427 692 147 callsubr
          -429 rmoveto
          -99 callgsubr
          332 258 rmoveto
          -857 -40 254 callsubr
          hlineto
          -95 callgsubr
          289 324 -178 -82 vlineto
          -90 -37 -35 -75 hvcurveto
          62 callsubr
        </CharString>
        <CharString name="dvG_NA">
          434 512 175 -103 callgsubr
          332 283 rmoveto
          -864 -40 254 callsubr
          hlineto
          -95 callgsubr
          289 518 305 callgsubr
          vlineto
          -80 -43 -35 -75 hvcurveto
          33 callgsubr
        </CharString>
        <CharString name="dvG_NNA">
          474 546 245 -15 callgsubr
          338 40 rmoveto
          -904 -40 254 callsubr
          hlineto
          -95 callgsubr
          289 140 124 callsubr
          149 -604 44 -47 callsubr
        </CharString>
        <CharString name="dvG_N_YA">
          722 987 15 callsubr
          181 53 callsubr
          630 293 rmoveto
          -1152 -40 254 callsubr
          hlineto
          -95 callgsubr
          289 626 vlineto
          83 callgsubr
        </CharString>
        <CharString name="dvG_R">
          105 callsubr
          endchar
        </CharString>
        <CharString name="dvG_RA">
          81 491 23 callgsubr
          -511 -40 156 -249 hlineto
          -95 callgsubr
          249 165 -337 vlineto
          -263 -267 rlineto
          61 hlineto
          99 101 rlineto
          75 75 29 31 0 0 -1 -35 -78 vvcurveto
          -94 -58 callsubr
        </CharString>
        <CharString name="dvG_R_YA">
          362 627 -105 callgsubr
          145 40 rmoveto
          -792 -40 254 callsubr
          hlineto
          -95 callgsubr
          289 266 44 callsubr
          -11 vlineto
          -238 -242 rlineto
          61 hlineto
          110 113 36 37 24 26 14 17 rlinecurve
          -87 24 77 -21 80 -9 callgsubr
        </CharString>
        <CharString name="dvG_SA">
          461 726 271 callgsubr
          148 hlineto
          181 callsubr
          -891 -40 254 callsubr
          hlineto
          -95 callgsubr
          289 352 -50 callsubr
          171 -297 -82 callgsubr
          hlineto
          endchar
        </CharString>
        <CharString name="dvG_VA">
          291 556 -82 callsubr
          145 195 rmoveto
          -721 -40 254 callsubr
          hlineto
          -95 callgsubr
          289 375 91 callsubr
          -49 callsubr
        </CharString>
        <CharString name="dvG_YA">
          362 627 -105 callgsubr
          145 40 rmoveto
          -792 -40 254 callsubr
          hlineto
          -95 callgsubr
          289 177 callsubr
        </CharString>
        <CharString name="dvGx">
          -138 181 604 rmoveto
          91 40 -292 -40 254 callsubr
          hlineto
          -95 callgsubr
          -137 -239 rmoveto
          -19 9 -14 24 125 callsubr
          vhcurveto
          endchar
        </CharString>
        <CharString name="dvGxA">
          86 99 103 rmoveto
          -43 callgsubr
          -103 callsubr
          hvcurveto
          397 541 rmoveto
          -516 -40 254 callsubr
          hlineto
          -95 callgsubr
          289 247 callsubr
        </CharString>
        <CharString name="dvGx_R">
          105 callsubr
          79 -384 rmoveto
          -19 9 -14 24 125 callsubr
          vhcurveto
          endchar
        </CharString>
        <CharString name="dvGx_RA">
          81 263 -30 rmoveto
          -43 callgsubr
          -103 callsubr
          hvcurveto
          228 674 rmoveto
          -511 -40 156 -249 hlineto
          -95 callgsubr
          249 165 -337 vlineto
          -263 -267 rlineto
          61 hlineto
          99 101 rlineto
          75 75 29 31 0 0 -1 -35 -78 vvcurveto
          -94 -58 callsubr
        </CharString>
        <CharString name="dvH">
          -51 424 304 rmoveto
          -230 207 callgsubr
          90 40 -444 -44 callsubr
          228 hlineto
          endchar
        </CharString>
        <CharString name="dvHA">
          22 51 125 rmoveto
          -79 58 -51 114 330 callsubr
          vhcurveto
          -8 callgsubr
          143 142 98 40 -452 153 callgsubr
          endchar
        </CharString>
        <CharString name="dvHA_mU">
          22 276 -5 rmoveto
          60 6 -25 -39 -39 -5 -25 -65 hvcurveto
          324 callsubr
          -65 hlineto
          289 callsubr
          -29 33 -82 hvcurveto
          -62 78 callsubr
          -79 49 -51 114 vhcurveto
          endchar
        </CharString>
        <CharString name="dvHA_mUU">
          22 360 -20 rmoveto
          35 -30 -28 22 -70 hhcurveto
          -18 78 callsubr
          -55 24 -39 52 -18 vhcurveto
          -27 -14 -11 -24 -44 vvcurveto
          -73 27 -35 84 vhcurveto
          92 44 -92 hlineto
          -60 -6 25 39 39 5 25 65 hvcurveto
          317 callgsubr
          58 hlineto
          endchar
        </CharString>
        <CharString name="dvHA_mvR">
          57 96 202 rmoveto
          45 25 27 75 vhcurveto
          114 hlineto
          45 25 -6 -45 -45 -25 -5 -45 hvcurveto
          -7 hlineto
          -75 -40 -22 -70 -70 45 -22 85 36 41 6 9 36 hvcurveto
          40 vlineto
          -8 -37 -39 -5 -37 hhcurveto
          -55 -30 5 45 45 25 5 45 hvcurveto
          7 hlineto
          75 40 22 70 70 -40 23 -75 hvcurveto
          -116 hlineto
          -75 -20 27 45 hvcurveto
          1 vlineto
          45 17 28 75 vhcurveto
          183 142 93 40 -487 -40 349 -100 -138 hlineto
          224 callsubr
          -1 53 callgsubr
          -202 vlineto
          -79 58 -51 114 330 callsubr
          vhcurveto
          41 vlineto
          -11 -36 -32 -4 -53 hhcurveto
          -94 -33 35 53 hvcurveto
          endchar
        </CharString>
        <CharString name="dvH_LA">
          588 853 460 rmoveto
          19 callsubr
          -50 -229 207 callsubr
          519 hlineto
          181 callsubr
          -1018 -44 callsubr
          227 -116 hlineto
          73 callsubr
          73 callgsubr
          vhcurveto
          -94 callsubr
        </CharString>
        <CharString name="dvH_MA">
          214 479 176 rmoveto
          -131 24 hlineto
          75 -36 39 -87 vhcurveto
          -21 hlineto
          -75 -20 27 45 hvcurveto
          3 vlineto
          45 17 28 75 vhcurveto
          143 142 135 hlineto
          181 callsubr
          -644 -40 319 -100 -98 hlineto
          224 callsubr
          -3 53 callgsubr
          -75 302 callsubr
          75 vlineto
          45 25 27 75 vhcurveto
          19 hlineto
          70 10 -27 -45 hvcurveto
          -119 43 55 131 -136 -58 callsubr
        </CharString>
        <CharString name="dvH_NA">
          532 797 139 callsubr
          -62 -215 207 callsubr
          463 hlineto
          -187 -429 -103 callgsubr
          332 283 rmoveto
          -962 -44 callsubr
          213 -87 hlineto
          -45 callsubr
        </CharString>
        <CharString name="dvH_NNA">
          604 676 245 -15 callgsubr
          -482 -300 rmoveto
          223 callgsubr
          117 -300 hlineto
          563 340 rmoveto
          -1034 -44 callsubr
          255 -17 149 callsubr
          149 -604 44 -47 callsubr
        </CharString>
        <CharString name="dvH_RA">
          29 344 224 callgsubr
          95 40 -459 -40 319 -100 -108 vlineto
          100 callgsubr
          -55 vlineto
          -89 49 -51 129 42 59 7 7 40 vhcurveto
          41 vlineto
          -8 -48 -50 -5 -43 hhcurveto
          -109 -24 39 59 hvcurveto
          55 vlineto
          45 25 27 75 vhcurveto
          65 hlineto
          14 12 -1 -2 9 hvcurveto
          -136 -153 rlineto
          52 hlineto
          118 132 rlineto
          7 -12 2 -16 -20 vvcurveto
          140 callsubr
          -67 hlineto
          14 callsubr
          endchar
        </CharString>
        <CharString name="dvH_VA">
          403 668 491 rmoveto
          -7 callsubr
          -77 -229 207 callsubr
          334 107 callgsubr
          -833 -44 callsubr
          227 -63 hlineto
          -49 callsubr
        </CharString>
        <CharString name="dvH_YA">
          198 463 153 rmoveto
          -5 -19 -29 -5 -37 hhcurveto
          -49 hlineto
          6 11 3 13 15 vvcurveto
          28 vlineto
          75 -36 39 -87 vhcurveto
          -21 hlineto
          -75 -20 27 45 hvcurveto
          3 vlineto
          45 17 28 75 vhcurveto
          143 132 129 hlineto
          181 callsubr
          -628 -40 309 -90 -98 hlineto
          224 callsubr
          -3 53 callgsubr
          -85 302 callsubr
          85 vlineto
          45 25 27 75 vhcurveto
          19 hlineto
          70 8 -27 -45 hvcurveto
          -30 vlineto
          -25 -11 -12 -37 vhcurveto
          -41 133 vlineto
          41 28 5 5 16 hvcurveto
          -112 -58 callsubr
        </CharString>
        <CharString name="dvI">
          3 97 171 rmoveto
          -42 -232 42 105 hlineto
          -6 28 32 -3 38 hhcurveto
          106 46 38 78 hvcurveto
          42 vlineto
          75 -45 41 -95 vhcurveto
          -22 hlineto
          -75 -20 29 45 hvcurveto
          6 97 callsubr
          133 142 95 40 -433 -40 293 -100 327 callgsubr
          -6 142 callgsubr
          22 hlineto
          75 20 -29 -45 hvcurveto
          -42 vlineto
          -48 -32 -26 -75 -39 -29 2 6 -30 vhcurveto
          endchar
        </CharString>
        <CharString name="dvII">
          3 318 462 24 callsubr
        </CharString>
        <CharString name="dvII_Anusvara">
          3 343 741 rmoveto
          -19 9 -14 24 125 callsubr
          vhcurveto
          -25 -279 24 callsubr
        </CharString>
        <CharString name="dvJ">
          -55 423 644 rmoveto
          -443 -40 443 hlineto
          1 -125 rmoveto
          -325 -40 113 hlineto
          -102 callgsubr
          167 hlineto
          endchar
        </CharString>
        <CharString name="dvJA">
          150 265 364 113 callgsubr
        </CharString>
        <CharString name="dvJH">
          -3 192 25 rmoveto
          106 34 41 75 hvcurveto
          52 vlineto
          238 callsubr
          188 41 -299 hlineto
          166 callgsubr
          154 40 -507 -9 callsubr
          endchar
        </CharString>
        <CharString name="dvJHA">
          198 195 267 rmoveto
          277 callsubr
          -50 40 callgsubr
          50 294 callsubr
          -268 287 callsubr
          -628 -40 300 -99 -88 312 callsubr
          -75 44 -41 95 vhcurveto
          -2 42 rmoveto
          193 callgsubr
          -295 hlineto
          endchar
        </CharString>
        <CharString name="dvJH_MA">
          579 844 115 callgsubr
          -7 -260 vlineto
          166 callgsubr
          324 161 callsubr
          332 258 rmoveto
          -1009 -9 callsubr
          106 34 41 75 hvcurveto
          52 vlineto
          238 callsubr
          149 -93 hlineto
          -14 callsubr
        </CharString>
        <CharString name="dvJH_NA">
          586 851 139 callsubr
          -57 -275 vlineto
          166 callgsubr
          518 hlineto
          -187 -429 -103 callgsubr
          332 283 rmoveto
          -1016 -9 callsubr
          106 34 41 75 hvcurveto
          52 294 callsubr
          -93 hlineto
          -45 callsubr
        </CharString>
        <CharString name="dvJH_R">
          34 516 183 rmoveto
          -260 -272 333 callsubr
          49 62 0 vvcurveto
          -179 57 rmoveto
          238 callsubr
          212 41 -322 hlineto
          -73 -19 29 45 hvcurveto
          296 callgsubr
          171 141 148 40 -536 -40 343 -99 -126 312 callsubr
          -75 43 -41 95 vhcurveto
          5 hlineto
          277 callsubr
          -52 40 callgsubr
          endchar
        </CharString>
        <CharString name="dvJH_RA">
          223 337 193 rmoveto
          238 callsubr
          184 -114 hlineto
          -232 -243 333 callsubr
          24 37 0 vvcurveto
          -1 vlineto
          0 -3 -20 -29 vvcurveto
          -61 287 callsubr
          -653 -40 343 -99 -126 vlineto
          153 callsubr
          -7 142 callgsubr
          3 hlineto
          277 callsubr
          -50 40 callgsubr
          -140 320 rmoveto
          171 141 120 -295 -294 hlineto
          260 callgsubr
          endchar
        </CharString>
        <CharString name="dvJH_YA">
          514 779 -105 callgsubr
          -306 -223 rmoveto
          -72 -285 vlineto
          166 callgsubr
          266 hlineto
          -50 callgsubr
          431 263 rmoveto
          -944 -9 callsubr
          106 34 41 75 hvcurveto
          52 vlineto
          238 callsubr
          174 -15 187 callsubr
        </CharString>
        <CharString name="dvJ_BA">
          362 440 346 -45 callgsubr
          142 195 rmoveto
          -792 -40 650 293 callsubr
          -42 -34 -9 -17 -24 hvcurveto
          -342 -40 113 hlineto
          -102 callgsubr
          149 hlineto
          -7 -16 -4 -18 -20 vvcurveto
          -190 vlineto
          90 callgsubr
        </CharString>
        <CharString name="dvJ_DA">
          355 665 196 callgsubr
          -785 -40 640 -100 -85 vlineto
          -43 -33 -9 -16 -23 hvcurveto
          -337 -40 113 hlineto
          -102 callgsubr
          147 hlineto
          -6 -15 -3 -17 -20 vvcurveto
          -184 221 callsubr
          184 136 callsubr
        </CharString>
        <CharString name="dvJ_DDA">
          351 657 328 callsubr
          -781 -40 632 -99 -83 vlineto
          -47 -35 -10 -19 -23 hvcurveto
          3 -325 -40 113 vlineto
          -102 callgsubr
          140 hlineto
          -5 -14 -3 -17 -18 vvcurveto
          -27 callsubr
        </CharString>
        <CharString name="dvJ_JA">
          515 925 23 callgsubr
          -945 -40 800 -125 -681 -40 113 hlineto
          -102 callgsubr
          320 137 callgsubr
        </CharString>
        <CharString name="dvJ_JHA">
          530 795 309 rmoveto
          -274 hlineto
          193 callgsubr
          hlineto
          181 callsubr
          -960 -40 632 -99 -88 hlineto
          -45 -33 -9 -17 -23 hvcurveto
          -324 -40 113 hlineto
          -102 callgsubr
          135 hlineto
          -5 -14 -3 -17 -18 vvcurveto
          -7 vlineto
          -75 44 -41 95 vhcurveto
          128 callgsubr
        </CharString>
        <CharString name="dvJ_J_NYA">
          569 424 439 rmoveto
          40 -325 -40 113 vlineto
          -102 callgsubr
          722 205 rmoveto
          -999 -40 854 -125 -326 -40 143 callgsubr
          159 -439 63 callgsubr
        </CharString>
        <CharString name="dvJ_J_VA">
          740 1005 -82 callsubr
          145 195 rmoveto
          -1170 -40 1025 158 callsubr
          -41 -33 -9 -17 -24 hvcurveto
          -709 -40 113 hlineto
          -102 callgsubr
          320 hlineto
          -102 callgsubr
          151 hlineto
          -9 -17 -4 -19 -22 vvcurveto
          -182 vlineto
          -49 callsubr
        </CharString>
        <CharString name="dvJ_J_YA">
          811 1076 -105 callgsubr
          145 40 rmoveto
          -1241 -40 916 121 callgsubr
          -69 -3 vhcurveto
          73 -1 -38 25 -82 hhcurveto
          -592 -40 113 hlineto
          -102 callgsubr
          320 hlineto
          -102 callgsubr
          65 hlineto
          68 15 -11 -50 hvcurveto
          -125 vlineto
          -91 callsubr
        </CharString>
        <CharString name="dvJ_KA">
          524 934 604 rmoveto
          40 -954 -40 630 -479 vlineto
          -106 callgsubr
          -41 -32 -9 -16 -22 hvcurveto
          -338 -40 113 hlineto
          -102 callgsubr
          148 hlineto
          -7 -15 -3 -17 -20 vvcurveto
          -197 -72 callsubr
        </CharString>
        <CharString name="dvJ_MA">
          511 776 147 callsubr
          -429 rmoveto
          -99 callgsubr
          332 258 rmoveto
          -941 -40 609 332 callsubr
          -16 -15 -1 -3 -13 hvcurveto
          41 -12 -46 16 -66 hhcurveto
          -240 -40 113 hlineto
          -102 callgsubr
          78 hlineto
          49 29 -8 -22 10 hvcurveto
          -30 -18 -13 -30 -45 145 callgsubr
        </CharString>
        <CharString name="dvJ_NA">
          534 612 175 -103 callgsubr
          332 283 rmoveto
          -964 -40 819 305 callgsubr
          hlineto
          -46 -33 -11 -24 -21 hvcurveto
          25 -18 -35 13 -50 hhcurveto
          -232 -40 113 hlineto
          -102 callgsubr
          70 hlineto
          64 20 -22 -42 hvcurveto
          0 vlineto
          -9 vlineto
          33 callgsubr
        </CharString>
        <CharString name="dvJ_NY">
          -8 143 439 rmoveto
          143 callgsubr
          172 40 -339 hlineto
          -163 165 rmoveto
          -40 502 40 vlineto
          endchar
        </CharString>
        <CharString name="dvJ_NYA">
          204 -20 23 callgsubr
          -40 489 -125 -326 -40 121 vlineto
          3 callgsubr
          159 -439 287 callsubr
          hlineto
          endchar
        </CharString>
        <CharString name="dvJ_NY_YA">
          500 765 316 callsubr
          106 vlineto
          81 53 33 84 hvcurveto
          53 330 callgsubr
          159 hlineto
          181 callsubr
          -930 -40 526 hlineto
          69 18 -30 -45 hvcurveto
          -53 296 callsubr
          67 -1 -64 11 -56 hhcurveto
          -237 -40 143 callgsubr
          66 hlineto
          57 26 -5 -50 hvcurveto
          -131 vlineto
          -138 78 -30 96 75 38 19 28 19 vhcurveto
          -132 -58 callsubr
        </CharString>
        <CharString name="dvJ_R">
          -58 128 -45 74 callgsubr
        </CharString>
        <CharString name="dvJ_RA">
          151 418 439 69 callsubr
        </CharString>
        <CharString name="dvJ_TA">
          386 796 23 callgsubr
          -816 -40 671 235 callsubr
          -42 -33 -9 -17 -24 hvcurveto
          -353 -40 113 hlineto
          -102 callgsubr
          161 hlineto
          -8 -16 -4 -19 -21 vvcurveto
          -268 vlineto
          -71 callsubr
        </CharString>
        <CharString name="dvJ_TTA">
          340 660 462 300 callsubr
          -770 -40 635 -100 -70 vlineto
          -43 -33 -9 -16 -23 hvcurveto
          -347 -40 113 hlineto
          -102 callgsubr
          157 hlineto
          -6 -15 -3 -17 -20 vvcurveto
          -258 38 callgsubr
          258 -32 callgsubr
          endchar
        </CharString>
        <CharString name="dvJ_VA">
          375 640 -82 callsubr
          145 195 rmoveto
          -805 -40 660 158 callsubr
          -41 -33 -9 -17 -24 hvcurveto
          -344 -40 113 hlineto
          -102 callgsubr
          151 hlineto
          -9 -17 -4 -19 -22 vvcurveto
          -182 vlineto
          -49 callsubr
        </CharString>
        <CharString name="dvJ_YA">
          446 711 139 13 callgsubr
        </CharString>
        <CharString name="dvJx">
          -55 44 -63 rmoveto
          -19 9 -14 24 125 callsubr
          vhcurveto
          379 707 rmoveto
          -443 -40 443 hlineto
          1 -125 rmoveto
          -325 -40 113 hlineto
          -102 callgsubr
          167 hlineto
          endchar
        </CharString>
        <CharString name="dvJxA">
          150 -1 -43 rmoveto
          -19 9 -14 24 125 callsubr
          vhcurveto
          266 407 113 callgsubr
        </CharString>
        <CharString name="dvJx_JxA">
          515 26 hmoveto
          -43 callgsubr
          -103 callsubr
          hvcurveto
          365 hmoveto
          -43 callgsubr
          -103 callsubr
          hvcurveto
          534 23 callgsubr
          -945 -40 800 -125 -681 -40 113 hlineto
          -102 callgsubr
          320 137 callgsubr
        </CharString>
        <CharString name="dvJx_R">
          -24 -1 18 rmoveto
          -19 9 -14 24 125 callsubr
          vhcurveto
          149 -63 74 callgsubr
        </CharString>
        <CharString name="dvJx_RA">
          170 26 vmoveto
          -19 9 -14 24 125 callsubr
          vhcurveto
          437 413 69 callsubr
        </CharString>
        <CharString name="dvJx_YA">
          446 26 -10 rmoveto
          -43 callgsubr
          -103 callsubr
          hvcurveto
          685 149 13 callgsubr
        </CharString>
        <CharString name="dvK">
          5 474 360 rmoveto
          45 26 hlineto
          54 callgsubr
          219 40 -549 -40 285 -479 vlineto
          -107 callsubr
          endchar
        </CharString>
        <CharString name="dvKA">
          179 265 26 callgsubr
          endchar
        </CharString>
        <CharString name="dvKH">
          121 95 274 15 callgsubr
        </CharString>
        <CharString name="dvKHA">
          324 589 113 callsubr
          -754 -40 272 hlineto
          0 13 -28 -47 vvcurveto
          -122 vlineto
          -61 -25 -37 -72 -25 -29 4 3 -19 vhcurveto
          124 -45 -268 -19 callgsubr
        </CharString>
        <CharString name="dvKH_KHA">
          863 1128 20 callsubr
          -709 -65 0 callgsubr
          854 393 rmoveto
          -1293 -101 callsubr
          494 80 callgsubr
          -122 vlineto
          -61 -25 -37 -72 -25 -29 4 3 -19 vhcurveto
          71 103 callsubr
          328 callgsubr
          37 315 callsubr
          -118 10 99 -37 117 hhcurveto
          55 53 8 7 34 hvcurveto
          44 vlineto
          -7 -30 -50 -9 -63 20 callgsubr
        </CharString>
        <CharString name="dvKH_MA">
          720 985 147 callsubr
          -429 rmoveto
          -99 callgsubr
          -379 1 0 callgsubr
          711 393 rmoveto
          -1150 -101 callsubr
          501 332 callsubr
          -36 -27 -6 -11 -20 hvcurveto
          61 -8 -40 34 -81 49 callgsubr
          -85 40 -32 90 37 29 5 13 20 vhcurveto
          -60 8 38 -29 80 78 callgsubr
        </CharString>
        <CharString name="dvKH_NA">
          712 790 175 -103 callgsubr
          -371 26 0 callgsubr
          703 393 rmoveto
          -1142 -101 callsubr
          680 305 callgsubr
          hlineto
          -40 -30 -9 -18 -21 hvcurveto
          36 -18 -38 19 -61 49 callgsubr
          -85 40 -32 90 37 29 5 13 21 vhcurveto
          -60 8 42 -29 71 219 callgsubr
          -54 callsubr
        </CharString>
        <CharString name="dvKH_R">
          123 58 callsubr
          494 79 -4 callsubr
        </CharString>
        <CharString name="dvKH_RA">
          324 589 113 callsubr
          -754 -40 272 hlineto
          0 13 -28 -47 vvcurveto
          -122 vlineto
          -61 -25 -37 -72 -25 -29 4 3 -19 vhcurveto
          124 -45 -268 -29 callsubr
        </CharString>
        <CharString name="dvKH_SHA">
          716 160 callsubr
          242 40 -559 -87 callgsubr
          -86 callsubr
          324 173 rmoveto
          279 callsubr
          70 15 -30 -45 vhcurveto
          -94 185 callsubr
          -26 -26 4 11 -43 vhcurveto
          28 103 callsubr
          -94 vlineto
          280 callgsubr
          36 315 callsubr
          -18 vlineto
          -90 72 -48 95 51 32 7 9 30 vhcurveto
          -43 callsubr
        </CharString>
        <CharString name="dvKH_TA">
          569 419 387 0 callgsubr
          560 393 rmoveto
          -999 -101 callsubr
          537 235 callsubr
          -56 -40 -16 -29 -24 hvcurveto
          29 -20 -36 15 -54 49 callgsubr
          -85 40 -32 90 36 315 callsubr
          -36 vlineto
          -71 callsubr
        </CharString>
        <CharString name="dvKH_VA">
          569 834 -82 callsubr
          -415 -62 0 callgsubr
          560 393 rmoveto
          -999 -101 callsubr
          537 158 callsubr
          -55 -41 -17 -29 -24 hvcurveto
          29 -20 -36 16 -55 49 callgsubr
          -85 40 -32 90 40 30 6 15 21 vhcurveto
          -52 17 47 -29 76 118 callsubr
        </CharString>
        <CharString name="dvKH_YA">
          630 895 -105 callgsubr
          -306 -353 rmoveto
          -45 -15 -30 -70 -70 -15 30 45 vhcurveto
          175 callgsubr
          70 15 -30 -45 vhcurveto
          451 257 rmoveto
          -1060 -101 callsubr
          418 55 callsubr
          -22 321 callsubr
          6 103 callsubr
          328 callgsubr
          48 34 9 21 21 vhcurveto
          -63 31 68 -16 71 -9 callgsubr
        </CharString>
        <CharString name="dvKHx">
          123 32 -30 rmoveto
          -43 callgsubr
          -103 callsubr
          hvcurveto
          63 304 15 callgsubr
        </CharString>
        <CharString name="dvKHxA">
          324 32 -30 rmoveto
          -43 callgsubr
          -103 callsubr
          hvcurveto
          557 216 211 callgsubr
          -754 -40 272 hlineto
          0 13 -28 -47 vvcurveto
          -122 vlineto
          -61 -25 -37 -72 -25 -29 4 3 -19 vhcurveto
          124 -45 -268 -19 callgsubr
        </CharString>
        <CharString name="dvKHx_MA">
          720 32 -30 rmoveto
          -43 callgsubr
          -103 callsubr
          hvcurveto
          953 456 -6 callgsubr
          -429 rmoveto
          -99 callgsubr
          -379 1 0 callgsubr
          711 393 rmoveto
          -1150 -101 callsubr
          501 332 callsubr
          -36 -27 -6 -11 -20 hvcurveto
          61 -8 -40 34 -81 49 callgsubr
          -85 40 -32 90 37 29 5 13 20 vhcurveto
          -60 8 38 -29 80 78 callgsubr
        </CharString>
        <CharString name="dvKHx_R">
          122 58 callsubr
          403 -149 rmoveto
          -43 callgsubr
          -103 callsubr
          hvcurveto
          91 228 -4 callsubr
        </CharString>
        <CharString name="dvKHx_RA">
          329 476 6 rmoveto
          -43 callgsubr
          -103 callsubr
          hvcurveto
          113 180 211 callgsubr
          -754 -40 272 hlineto
          0 13 -28 -47 vvcurveto
          -122 vlineto
          -61 -25 -37 -72 -25 -29 4 3 -19 vhcurveto
          124 -45 -268 -29 callsubr
        </CharString>
        <CharString name="dvKHx_SA">
          724 32 -30 rmoveto
          -43 callgsubr
          -103 callsubr
          hvcurveto
          957 367 rmoveto
          -147 hlineto
          -88 callgsubr
          148 hlineto
          -570 -217 0 callgsubr
          715 393 rmoveto
          -1154 -101 callsubr
          499 hlineto
          -53 callgsubr
          74 103 callsubr
          328 callgsubr
          36 315 callsubr
          -18 -58 callgsubr
        </CharString>
        <CharString name="dvKHx_SHA">
          716 32 -30 rmoveto
          -43 callgsubr
          -103 callsubr
          hvcurveto
          63 304 rmoveto
          -84 callgsubr
          228 40 -545 -87 callgsubr
          -86 callsubr
          324 185 rmoveto
          279 callsubr
          70 15 -30 -45 vhcurveto
          -106 185 callsubr
          -25 -38 6 7 -32 vhcurveto
          42 103 callsubr
          -106 vlineto
          280 callgsubr
          36 315 callsubr
          -18 vlineto
          -90 72 -48 95 184 callsubr
          vhcurveto
          42 vlineto
          -9 -35 -35 -7 -43 hhcurveto
          -75 -47 32 64 hvcurveto
          140 vlineto
          -9 30 29 -4 36 hhcurveto
          95 45 47 75 hvcurveto
          145 vlineto
          75 -45 47 -95 -95 -45 -47 -75 -17 3 -20 0 vhcurveto
          389 154 154 callsubr
        </CharString>
        <CharString name="dvKHx_TA">
          569 32 -30 rmoveto
          -43 callgsubr
          -103 callsubr
          hvcurveto
          387 417 0 callgsubr
          560 393 rmoveto
          -999 -101 callsubr
          537 235 callsubr
          -56 -40 -16 -29 -24 hvcurveto
          29 -20 -36 15 -54 49 callgsubr
          -85 40 -32 90 36 315 callsubr
          -36 vlineto
          -71 callsubr
        </CharString>
        <CharString name="dvKHx_VA">
          570 32 -30 rmoveto
          -43 callgsubr
          -103 callsubr
          hvcurveto
          803 160 rmoveto
          -99 callsubr
          -246 -198 rmoveto
          -45 -15 -30 -70 -70 -15 30 45 vhcurveto
          175 callgsubr
          70 15 -30 -45 vhcurveto
          391 257 rmoveto
          -1000 -101 callsubr
          538 158 callsubr
          -56 -40 -17 -29 -24 hvcurveto
          29 -20 -37 16 -55 49 callgsubr
          -85 40 -32 90 41 30 7 14 21 vhcurveto
          -52 16 48 -29 76 118 callsubr
        </CharString>
        <CharString name="dvKHx_YA">
          631 32 -30 rmoveto
          -43 callgsubr
          -103 callsubr
          hvcurveto
          864 169 -106 callsubr
          -307 -353 rmoveto
          -45 -15 -30 -70 -70 -15 30 45 vhcurveto
          175 callgsubr
          70 15 -30 -45 vhcurveto
          452 257 rmoveto
          -1061 -101 callsubr
          419 304 callgsubr
          6 103 callsubr
          328 callgsubr
          48 34 9 22 21 vhcurveto
          -64 32 68 -16 71 -9 callgsubr
        </CharString>
        <CharString name="dvK_CA">
          512 777 121 rmoveto
          163 callgsubr
          78 vlineto
          229 callgsubr
          -199 hlineto
          62 -4 -30 42 -93 75 callgsubr
          467 331 callsubr
          -942 -40 285 -479 hlineto
          -107 callsubr
          -26 78 vlineto
          0 -10 -32 -63 vvcurveto
          -78 167 callgsubr
          vlineto
          endchar
        </CharString>
        <CharString name="dvK_DA">
          434 310 604 rmoveto
          389 -100 -85 hlineto
          -55 284 callgsubr
          209 -106 216 callgsubr
          -864 -40 285 -479 hlineto
          -107 callsubr
          -183 221 callsubr
          endchar
        </CharString>
        <CharString name="dvK_JA">
          634 1044 23 callgsubr
          -1064 -40 285 -479 hlineto
          -107 callsubr
          -98 45 98 307 callgsubr
          589 -125 -296 -40 93 259 callsubr
          -34 -27 4 7 -26 vhcurveto
          -43 vlineto
          -6 23 23 -4 41 239 callsubr
          197 -97 callgsubr
          158 -439 63 callgsubr
        </CharString>
        <CharString name="dvK_KA">
          603 689 125 rmoveto
          -106 callgsubr
          -52 284 callgsubr
          111 379 vlineto
          324 hmoveto
          40 -1033 -40 285 -479 vlineto
          -107 callsubr
          -196 -72 callsubr
        </CharString>
        <CharString name="dvK_KHA">
          748 1013 20 callsubr
          -324 -45 rmoveto
          -61 -25 -37 -72 -25 -29 4 3 -19 vhcurveto
          70 307 callgsubr
          366 vlineto
          111 callgsubr
          469 115 rmoveto
          -1178 -40 285 -479 hlineto
          -107 callsubr
          -214 -19 callgsubr
        </CharString>
        <CharString name="dvK_LA">
          639 904 170 callgsubr
          -43 -31 -11 -19 -21 hvcurveto
          36 -16 -34 22 -67 75 callgsubr
          594 331 callsubr
          -1069 -40 285 -479 hlineto
          -107 callsubr
          -26 vlineto
          0 vlineto
          -6 vlineto
          50 callgsubr
          28 -5 -11 24 vhcurveto
          -418 45 604 100 vlineto
          endchar
        </CharString>
        <CharString name="dvK_MA">
          605 870 426 -18 callsubr
        </CharString>
        <CharString name="dvK_NA">
          597 862 476 rmoveto
          -265 hlineto
          -39 -30 -8 -18 -21 hvcurveto
          33 -16 -34 21 -65 75 callgsubr
          552 vlineto
          -187 -429 -103 callgsubr
          332 283 rmoveto
          -1027 -40 285 -479 hlineto
          -107 callsubr
          -211 11 callsubr
        </CharString>
        <CharString name="dvK_NNA">
          627 699 245 -15 callgsubr
          -389 147 callgsubr
          727 171 rmoveto
          -1057 -2 callgsubr
          -121 vlineto
          139 callgsubr
          149 -604 44 -47 callsubr
        </CharString>
        <CharString name="dvK_PA">
          447 712 188 rmoveto
          -13 callgsubr
          352 193 vlineto
          -402 147 callgsubr
          547 171 rmoveto
          -877 -2 callgsubr
          -114 vlineto
          50 callsubr
        </CharString>
        <CharString name="dvK_PHA">
          617 699 175 -74 callgsubr
        </CharString>
        <CharString name="dvK_P_RA">
          447 519 604 rmoveto
          193 -344 hlineto
          -13 callgsubr
          -209 280 rmoveto
          92 callgsubr
          547 171 rmoveto
          -877 -2 callgsubr
          -42 vlineto
          22 callgsubr
          vhcurveto
          0 callsubr
        </CharString>
        <CharString name="dvK_R">
          27 552 604 39 callsubr
        </CharString>
        <CharString name="dvK_RA">
          212 622 604 rmoveto
          40 -642 -40 308 189 callgsubr
          166 vlineto
          257 callsubr
          -166 vlineto
          -75 47 -42 90 vhcurveto
          -61 callgsubr
        </CharString>
        <CharString name="dvK_SA">
          609 874 271 callgsubr
          148 hlineto
          -355 -218 18 callgsubr
          500 331 rmoveto
          -1039 -40 285 -479 hlineto
          -107 callsubr
          135 callgsubr
        </CharString>
        <CharString name="dvK_SHA">
          601 522 490 225 callsubr
          35 vlineto
          67 callgsubr
          144 104 40 -434 -44 callgsubr
          419 -80 callsubr
          -220 vlineto
          -90 72 -48 95 51 32 7 9 30 vhcurveto
          -43 callsubr
        </CharString>
        <CharString name="dvK_SS">
          -11 495 382 rmoveto
          -182 hlineto
          269 callsubr
          74 vlineto
          -62 callsubr
          296 hlineto
          -203 116 rmoveto
          41 callgsubr
          endchar
        </CharString>
        <CharString name="dvK_SSA">
          198 337 532 rmoveto
          -62 callsubr
          264 -342 287 callsubr
          -145 -262 -150 hlineto
          269 callsubr
          -45 hmoveto
          41 callgsubr
          endchar
        </CharString>
        <CharString name="dvK_SS_MA">
          583 848 147 callsubr
          -429 rmoveto
          -99 callgsubr
          -369 72 rmoveto
          41 callgsubr
          115 112 rmoveto
          -40 254 -178 -82 vlineto
          -57 -36 -14 -30 -19 hvcurveto
          -154 hlineto
          269 callsubr
          74 vlineto
          -62 callsubr
          255 hlineto
          -1 -8 -1 -9 -9 vvcurveto
          -40 callsubr
          142 -386 -34 callsubr
        </CharString>
        <CharString name="dvK_SS_M_YA">
          884 1149 -75 callsubr
          -251 rmoveto
          -99 callgsubr
          -366 72 rmoveto
          41 callgsubr
          1002 112 rmoveto
          -890 -40 254 332 callsubr
          -57 -36 -14 -30 -19 hvcurveto
          -151 hlineto
          269 callsubr
          74 vlineto
          -62 callsubr
          252 hlineto
          -1 -8 -1 -9 -9 vvcurveto
          76 callsubr
        </CharString>
        <CharString name="dvK_SS_VA">
          447 712 -82 callsubr
          -420 9 rmoveto
          41 callgsubr
          105 112 199 callsubr
          -95 -51 -50 -73 hvcurveto
          -154 hlineto
          269 callsubr
          74 vlineto
          -62 callsubr
          268 -143 hlineto
          -5 callsubr
          40 vlineto
          endchar
        </CharString>
        <CharString name="dvK_SS_YA">
          518 783 107 callsubr
          -146 rmoveto
          41 callgsubr
          105 112 rmoveto
          -40 206 vlineto
          -50 callgsubr
          -2 1 -182 hlineto
          269 callsubr
          74 vlineto
          -62 callsubr
          278 -89 hlineto
          92 callsubr
          vlineto
          endchar
        </CharString>
        <CharString name="dvK_S_DDA">
          837 875 349 rmoveto
          -4 0 -4 -4 vvcurveto
          -148 hlineto
          -88 callgsubr
          372 -99 -83 202 callsubr
          -356 -4 18 callgsubr
          624 150 261 callsubr
          -1267 -40 285 -479 vlineto
          -107 callsubr
          7 callgsubr
          50 36 13 23 23 hvcurveto
          181 hlineto
          -42 18 43 -22 70 hhcurveto
          -11 callgsubr
          165 callsubr
        </CharString>
        <CharString name="dvK_S_P_LA">
          1273 1538 460 rmoveto
          19 callsubr
          -169 vlineto
          -6 -22 -32 -6 -31 180 callgsubr
          616 vlineto
          -808 -257 rmoveto
          3 11 1 12 13 -72 callgsubr
          151 -257 hlineto
          -188 36 198 callgsubr
          994 115 rmoveto
          -1703 -40 285 -479 hlineto
          -107 callsubr
          7 callgsubr
          57 38 17 29 23 hvcurveto
          165 -55 hlineto
          22 callgsubr
          31 31 6 6 23 vhcurveto
          -88 1 45 -55 109 hhcurveto
          73 callgsubr
          hvcurveto
          -94 callsubr
        </CharString>
        <CharString name="dvK_S_P_RA">
          852 924 604 rmoveto
          193 -344 hlineto
          -13 callgsubr
          -45 280 rmoveto
          -257 -149 vlineto
          3 11 1 12 13 -72 callgsubr
          -37 -221 198 callgsubr
          573 115 rmoveto
          -1282 -40 285 -479 hlineto
          -107 callsubr
          7 callgsubr
          57 38 17 29 23 hvcurveto
          168 hlineto
          -65 7 50 -39 88 0 callsubr
        </CharString>
        <CharString name="dvK_S_TA">
          857 1122 490 326 callsubr
          260 callsubr
          -46 -150 vlineto
          -88 callgsubr
          396 hlineto
          -603 -218 18 callgsubr
          748 331 rmoveto
          -1287 -40 285 -479 hlineto
          -107 callsubr
          7 callgsubr
          50 36 13 23 23 hvcurveto
          174 -182 hlineto
          -71 callsubr
        </CharString>
        <CharString name="dvK_S_TTA">
          815 880 337 rmoveto
          -153 hlineto
          -88 callgsubr
          364 -100 -70 239 callgsubr
          -361 -1 18 callgsubr
          616 149 300 callsubr
          -1245 -40 285 -479 vlineto
          -107 callsubr
          7 callgsubr
          50 36 13 23 23 hvcurveto
          177 -168 hlineto
          -65 callgsubr
          258 -32 callgsubr
          endchar
        </CharString>
        <CharString name="dvK_TA">
          206 327 435 rmoveto
          -13 callsubr
          -204 -84 callsubr
          204 -12 callgsubr
          128 289 40 -636 -40 302 -128 vlineto
          4 -26 -23 2 -33 hhcurveto
          -188 -40 83 hlineto
          -15 -20 -7 -25 -30 vvcurveto
          -201 -40 callgsubr
          201 vlineto
          45 12 30 70 30 27 -2 -4 25 vhcurveto
          -436 45 vlineto
          endchar
        </CharString>
        <CharString name="dvK_THA">
          569 835 644 105 callgsubr
          -34 hlineto
          53 -7 -33 36 -85 49 callsubr
          161 139 40 -469 -44 callgsubr
          402 -80 callsubr
          -65 263 callsubr
        </CharString>
        <CharString name="dvK_TTA">
          409 310 604 rmoveto
          374 -100 -70 hlineto
          -55 284 callgsubr
          209 -106 172 callgsubr
          -839 -40 285 -479 hlineto
          -107 callsubr
          -257 38 callgsubr
          endchar
        </CharString>
        <CharString name="dvK_T_RA">
          474 739 483 rmoveto
          9 -31 -33 6 -40 hhcurveto
          -60 -43 -15 -29 -27 hvcurveto
          31 -17 -34 19 -62 75 callgsubr
          429 331 callsubr
          -904 -40 285 -479 hlineto
          -107 callsubr
          -78 106 callsubr
          4 hlineto
          0 -3 -34 -78 vvcurveto
          -168 -58 callsubr
        </CharString>
        <CharString name="dvK_T_VA">
          678 943 236 callgsubr
          -38 -31 -8 -14 -23 hvcurveto
          7 -45 -42 5 -40 hhcurveto
          -54 -41 -15 -25 -25 hvcurveto
          30 -17 -34 19 -62 75 callgsubr
          633 197 callsubr
          -1108 -40 285 -479 hlineto
          -107 callsubr
          -271 -40 callgsubr
          249 callgsubr
          28 35 78 32 30 -2 -4 29 vhcurveto
          -12 -18 -6 -23 -25 vvcurveto
          -182 vlineto
          -49 callsubr
        </CharString>
        <CharString name="dvK_T_YA">
          759 1024 -105 callgsubr
          -405 -135 rmoveto
          -47 -36 -11 -21 -24 hvcurveto
          41 -13 -34 26 -73 75 callgsubr
          534 vlineto
          138 callgsubr
          530 175 rmoveto
          -1189 -40 285 -479 hlineto
          -107 callsubr
          -26 1 vlineto
          -1 -4 0 -5 -4 vvcurveto
          -232 36 callgsubr
        </CharString>
        <CharString name="dvK_VA">
          454 719 30 callgsubr
          145 195 rmoveto
          -884 -40 285 -479 hlineto
          -107 callsubr
          -187 vlineto
          -5 callsubr
          vlineto
          endchar
        </CharString>
        <CharString name="dvK_V_YA">
          760 1025 -105 callgsubr
          -306 -223 rmoveto
          -190 vlineto
          213 callsubr
          -49 -37 -11 -22 -24 hvcurveto
          33 -16 -34 20 -64 75 callgsubr
          535 vlineto
          -50 callgsubr
          431 263 rmoveto
          -1190 -40 285 -479 hlineto
          -107 callsubr
          -195 vlineto
          -75 47 -42 95 72 45 24 44 18 vhcurveto
          -45 35 60 -12 61 -9 callgsubr
        </CharString>
        <CharString name="dvK_YA">
          515 780 13 callsubr
          -945 -40 285 -479 hlineto
          -107 callsubr
          -133 vlineto
          -91 callsubr
        </CharString>
        <CharString name="dvKx">
          4 474 360 rmoveto
          45 26 hlineto
          54 callgsubr
          219 40 -549 -40 285 -479 vlineto
          -107 callsubr
          -388 -409 rmoveto
          -19 9 -14 24 125 callsubr
          vhcurveto
          endchar
        </CharString>
        <CharString name="dvKxA">
          184 270 26 callgsubr
          -194 -607 rmoveto
          -19 9 -14 24 125 callsubr
          vhcurveto
          endchar
        </CharString>
</ttFont>
